<svg version="1.1" viewBox="0.0 0.0 960.0 720.0" fill="none" stroke="none" stroke-linecap="square" stroke-miterlimit="10" xmlns:xlink="http://www.w3.org/1999/xlink" xmlns="http://www.w3.org/2000/svg"><clipPath id="p.0"><path d="m0 0l960.0 0l0 720.0l-960.0 0l0 -720.0z" clip-rule="nonzero"/></clipPath><g clip-path="url(#p.0)"><path fill="#000000" fill-opacity="0.0" d="m0 0l960.0 0l0 720.0l-960.0 0z" fill-rule="evenodd"/><path fill="#000000" fill-opacity="0.0" d="m220.59317 204.70079l288.8189 0l0 51.716537l-288.8189 0z" fill-rule="evenodd"/><path fill="#000000" d="m231.49942 244.67578l0 -24.453125l6.46875 0l0 2.875l-3.0 0l0 18.703125l3.0 0l0 2.875l-6.46875 0zm15.50145 -20.796875l0 -3.40625l12.51564 0l0 2.65625q-1.546875 1.53125 -3.15625 4.390625q-1.5937653 2.84375 -2.4375153 6.046875q-0.84375 3.203125 -0.828125 5.734375l-3.515625 0q0.078125 -3.953125 1.625 -8.0625q1.546875 -4.125 4.125 -7.359375l-8.328125 0zm15.528061 11.765625l3.65625 0l0 2.609375q0 1.59375 -0.28125 2.5q-0.265625 0.921875 -1.03125 1.65625q-0.765625 0.734375 -1.9375 1.140625l-0.71875 -1.5q1.109375 -0.375 1.578125 -1.015625q0.46875 -0.625 0.5 -1.734375l-1.765625 0l0 -3.65625zm14.171295 -1.25l3.640625 -0.375q0.15625 1.234375 0.921875 1.953125q0.765625 0.71875 1.765625 0.71875q1.15625 0 1.9375 -0.921875q0.796875 -0.9375 0.796875 -2.8125q0 -1.75 -0.78125 -2.625q-0.78125 -0.890625 -2.046875 -0.890625q-1.578125 0 -2.828125 1.40625l-2.96875 -0.4375l1.875 -9.9375l9.671875 0l0 3.4375l-6.890625 0l-0.578125 3.234375q1.21875 -0.609375 2.5 -0.609375q2.4375 0 4.125 1.765625q1.6875 1.765625 1.6875 4.59375q0 2.359375 -1.359375 4.203125q-1.859375 2.53125 -5.171875 2.53125q-2.640625 0 -4.3125 -1.421875q-1.65625 -1.421875 -1.984375 -3.8125zm15.465576 1.25l3.65625 0l0 2.609375q0 1.59375 -0.28125 2.5q-0.265625 0.921875 -1.03125 1.65625q-0.765625 0.734375 -1.9375 1.140625l-0.71875 -1.5q1.109375 -0.375 1.578125 -1.015625q0.46875 -0.625 0.5 -1.734375l-1.765625 0l0 -3.65625zm26.46817 0.265625l0 3.390625l-12.828125 0q0.21875 -1.921875 1.25 -3.640625q1.046875 -1.734375 4.125 -4.578125q2.46875 -2.3125 3.03125 -3.125q0.75 -1.140625 0.75 -2.25q0 -1.21875 -0.65625 -1.875q-0.65625 -0.65625 -1.8125 -0.65625q-1.140625 0 -1.828125 0.6875q-0.671875 0.6875 -0.78125 2.296875l-3.640625 -0.375q0.328125 -3.015625 2.046875 -4.328125q1.71875 -1.3125 4.296875 -1.3125q2.8125 0 4.421875 1.53125q1.625 1.515625 1.625 3.78125q0 1.28125 -0.46875 2.453125q-0.453125 1.15625 -1.453125 2.4375q-0.671875 0.84375 -2.40625 2.4375q-1.71875 1.578125 -2.1875 2.109375q-0.453125 0.515625 -0.75 1.015625l7.265625 0zm3.1686707 -0.265625l3.65625 0l0 2.609375q0 1.59375 -0.28125 2.5q-0.265625 0.921875 -1.03125 1.65625q-0.765625 0.734375 -1.9375 1.140625l-0.71875 -1.5q1.109375 -0.375 1.578125 -1.015625q0.46875 -0.625 0.5 -1.734375l-1.765625 0l0 -3.65625zm17.24942 -6.640625q-1.421875 -0.59375 -2.0625 -1.640625q-0.640625 -1.046875 -0.640625 -2.296875q0 -2.140625 1.484375 -3.53125q1.5 -1.390625 4.234375 -1.390625q2.734375 0 4.234375 1.390625q1.5 1.390625 1.5 3.53125q0 1.328125 -0.6875 2.359375q-0.6875 1.03125 -1.9375 1.578125q1.578125 0.640625 2.40625 1.875q0.828125 1.21875 0.828125 2.8125q0 2.640625 -1.6875 4.296875q-1.6875 1.65625 -4.484375 1.65625q-2.59375 0 -4.328125 -1.375q-2.046875 -1.609375 -2.046875 -4.421875q0 -1.546875 0.765625 -2.84375q0.765625 -1.296875 2.421875 -2.0zm0.765625 -3.6875q0 1.09375 0.609375 1.71875q0.625 0.609375 1.640625 0.609375q1.046875 0 1.671875 -0.625q0.625 -0.625 0.625 -1.703125q0 -1.03125 -0.625 -1.640625q-0.609375 -0.625 -1.625 -0.625q-1.046875 0 -1.671875 0.625q-0.625 0.625 -0.625 1.640625zm-0.34375 8.171875q0 1.515625 0.765625 2.359375q0.78125 0.84375 1.9375 0.84375q1.140625 0 1.875 -0.8125q0.75 -0.8125 0.75 -2.34375q0 -1.34375 -0.765625 -2.15625q-0.75 -0.8125 -1.90625 -0.8125q-1.34375 0 -2.0 0.921875q-0.65625 0.921875 -0.65625 2.0zm11.965576 2.15625l3.65625 0l0 2.609375q0 1.59375 -0.28125 2.5q-0.265625 0.921875 -1.03125 1.65625q-0.765625 0.734375 -1.9375 1.140625l-0.71875 -1.5q1.109375 -0.375 1.578125 -1.015625q0.46875 -0.625 0.5 -1.734375l-1.765625 0l0 -3.65625zm14.171295 -1.25l3.640625 -0.375q0.15625 1.234375 0.921875 1.953125q0.765625 0.71875 1.765625 0.71875q1.15625 0 1.9375 -0.921875q0.796875 -0.9375 0.796875 -2.8125q0 -1.75 -0.78125 -2.625q-0.78125 -0.890625 -2.046875 -0.890625q-1.578125 0 -2.828125 1.40625l-2.96875 -0.4375l1.875 -9.9375l9.671875 0l0 3.4375l-6.890625 0l-0.578125 3.234375q1.21875 -0.609375 2.5 -0.609375q2.4375 0 4.125 1.765625q1.6875 1.765625 1.6875 4.59375q0 2.359375 -1.359375 4.203125q-1.859375 2.53125 -5.171875 2.53125q-2.640625 0 -4.3125 -1.421875q-1.65625 -1.421875 -1.984375 -3.8125zm15.465546 1.25l3.65625 0l0 2.609375q0 1.59375 -0.28125 2.5q-0.265625 0.921875 -1.03125 1.65625q-0.765625 0.734375 -1.9375 1.140625l-0.71875 -1.5q1.109375 -0.375 1.578125 -1.015625q0.46875 -0.625 0.5 -1.734375l-1.765625 0l0 -3.65625zm13.983795 -1.40625l3.546875 -0.4375q0.171875 1.359375 0.90625 2.078125q0.75 0.71875 1.796875 0.71875q1.125 0 1.90625 -0.859375q0.78125 -0.859375 0.78125 -2.328125q0 -1.375 -0.75 -2.171875q-0.734375 -0.8125 -1.8125 -0.8125q-0.703125 0 -1.671875 0.265625l0.40625 -2.96875q1.484375 0.03125 2.265625 -0.640625q0.78125 -0.6875 0.78125 -1.828125q0 -0.953125 -0.578125 -1.53125q-0.578125 -0.578125 -1.53125 -0.578125q-0.921875 0 -1.59375 0.65625q-0.65625 0.65625 -0.8125 1.90625l-3.359375 -0.578125q0.34375 -1.734375 1.046875 -2.765625q0.71875 -1.03125 1.984375 -1.625q1.265625 -0.59375 2.84375 -0.59375q2.703125 0 4.328125 1.71875q1.34375 1.40625 1.34375 3.171875q0 2.515625 -2.75 4.015625q1.640625 0.34375 2.609375 1.578125q0.984375 1.21875 0.984375 2.9375q0 2.515625 -1.828125 4.296875q-1.828125 1.765625 -4.5625 1.765625q-2.59375 0 -4.296875 -1.484375q-1.703125 -1.5 -1.984375 -3.90625zm15.653076 1.40625l3.65625 0l0 2.609375q0 1.59375 -0.28125 2.5q-0.265625 0.921875 -1.03125 1.65625q-0.765625 0.734375 -1.9375 1.140625l-0.71875 -1.5q1.109375 -0.375 1.578125 -1.015625q0.46875 -0.625 0.5 -1.734375l-1.765625 0l0 -3.65625zm20.296295 -15.5q2.78125 0 4.34375 1.96875q1.859375 2.34375 1.859375 7.78125q0 5.40625 -1.875 7.78125q-1.546875 1.953125 -4.328125 1.953125q-2.78125 0 -4.484375 -2.140625q-1.703125 -2.140625 -1.703125 -7.640625q0 -5.390625 1.875 -7.75q1.546875 -1.953125 4.3125 -1.953125zm0 3.03125q-0.65625 0 -1.1875 0.421875q-0.515625 0.421875 -0.796875 1.515625q-0.375 1.421875 -0.375 4.78125q0 3.359375 0.328125 4.609375q0.34375 1.25 0.859375 1.671875q0.515625 0.421875 1.171875 0.421875q0.671875 0 1.1875 -0.421875q0.515625 -0.421875 0.8125 -1.515625q0.375 -1.40625 0.375 -4.765625q0 -3.359375 -0.34375 -4.609375q-0.34375 -1.265625 -0.859375 -1.6875q-0.5 -0.421875 -1.171875 -0.421875zm9.340546 12.46875l3.65625 0l0 2.609375q0 1.59375 -0.28125 2.5q-0.265625 0.921875 -1.03125 1.65625q-0.765625 0.734375 -1.9375 1.140625l-0.71875 -1.5q1.109375 -0.375 1.578125 -1.015625q0.46875 -0.625 0.5 -1.734375l-1.765625 0l0 -3.65625zm13.983795 -1.40625l3.546875 -0.4375q0.171875 1.359375 0.90625 2.078125q0.75 0.71875 1.796875 0.71875q1.125 0 1.90625 -0.859375q0.78125 -0.859375 0.78125 -2.328125q0 -1.375 -0.75 -2.171875q-0.734375 -0.8125 -1.8125 -0.8125q-0.703125 0 -1.671875 0.265625l0.40625 -2.96875q1.484375 0.03125 2.265625 -0.640625q0.78125 -0.6875 0.78125 -1.828125q0 -0.953125 -0.578125 -1.53125q-0.578125 -0.578125 -1.53125 -0.578125q-0.921875 0 -1.59375 0.65625q-0.65625 0.65625 -0.8125 1.90625l-3.359375 -0.578125q0.34375 -1.734375 1.046875 -2.765625q0.71875 -1.03125 1.984375 -1.625q1.265625 -0.59375 2.84375 -0.59375q2.703125 0 4.328125 1.71875q1.34375 1.40625 1.34375 3.171875q0 2.515625 -2.75 4.015625q1.640625 0.34375 2.609375 1.578125q0.984375 1.21875 0.984375 2.9375q0 2.515625 -1.828125 4.296875q-1.828125 1.765625 -4.5625 1.765625q-2.59375 0 -4.296875 -1.484375q-1.703125 -1.5 -1.984375 -3.90625zm28.199646 -14.015625l0 24.453125l-6.46875 0l0 -2.875l3.0 0l0 -18.734375l-3.0 0l0 -2.84375l6.46875 0z" fill-rule="nonzero"/><path fill="#000000" fill-opacity="0.0" d="m220.59317 154.84251l288.8189 0l0 51.716537l-288.8189 0z" fill-rule="evenodd"/><path fill="#000000" d="m231.49942 194.81752l0 -24.453125l6.46875 0l0 2.875l-3.0 0l0 18.703125l3.0 0l0 2.875l-6.46875 0zm15.50145 -20.796875l0 -3.40625l12.51564 0l0 2.65625q-1.546875 1.53125 -3.15625 4.390625q-1.5937653 2.84375 -2.4375153 6.046875q-0.84375 3.203125 -0.828125 5.734375l-3.515625 0q0.078125 -3.953125 1.625 -8.0625q1.546875 -4.125 4.125 -7.359375l-8.328125 0zm15.528061 11.765625l3.65625 0l0 2.609375q0 1.59375 -0.28125 2.5q-0.265625 0.921875 -1.03125 1.65625q-0.765625 0.734375 -1.9375 1.140625l-0.71875 -1.5q1.109375 -0.375 1.578125 -1.015625q0.46875 -0.625 0.5 -1.734375l-1.765625 0l0 -3.65625zm14.171295 -1.25l3.640625 -0.375q0.15625 1.234375 0.921875 1.953125q0.765625 0.71875 1.765625 0.71875q1.15625 0 1.9375 -0.921875q0.796875 -0.9375 0.796875 -2.8125q0 -1.75 -0.78125 -2.625q-0.78125 -0.890625 -2.046875 -0.890625q-1.578125 0 -2.828125 1.40625l-2.96875 -0.4375l1.875 -9.9375l9.671875 0l0 3.4375l-6.890625 0l-0.578125 3.234375q1.21875 -0.609375 2.5 -0.609375q2.4375 0 4.125 1.765625q1.6875 1.765625 1.6875 4.59375q0 2.359375 -1.359375 4.203125q-1.859375 2.53125 -5.171875 2.53125q-2.640625 0 -4.3125 -1.421875q-1.65625 -1.421875 -1.984375 -3.8125zm15.465576 1.25l3.65625 0l0 2.609375q0 1.59375 -0.28125 2.5q-0.265625 0.921875 -1.03125 1.65625q-0.765625 0.734375 -1.9375 1.140625l-0.71875 -1.5q1.109375 -0.375 1.578125 -1.015625q0.46875 -0.625 0.5 -1.734375l-1.765625 0l0 -3.65625zm26.46817 0.265625l0 3.390625l-12.828125 0q0.21875 -1.921875 1.25 -3.640625q1.046875 -1.734375 4.125 -4.578125q2.46875 -2.3125 3.03125 -3.125q0.75 -1.140625 0.75 -2.25q0 -1.21875 -0.65625 -1.875q-0.65625 -0.65625 -1.8125 -0.65625q-1.140625 0 -1.828125 0.6875q-0.671875 0.6875 -0.78125 2.296875l-3.640625 -0.375q0.328125 -3.015625 2.046875 -4.328125q1.71875 -1.3125 4.296875 -1.3125q2.8125 0 4.421875 1.53125q1.625 1.515625 1.625 3.78125q0 1.28125 -0.46875 2.453125q-0.453125 1.15625 -1.453125 2.4375q-0.671875 0.84375 -2.40625 2.4375q-1.71875 1.578125 -2.1875 2.109375q-0.453125 0.515625 -0.75 1.015625l7.265625 0zm3.1686707 -0.265625l3.65625 0l0 2.609375q0 1.59375 -0.28125 2.5q-0.265625 0.921875 -1.03125 1.65625q-0.765625 0.734375 -1.9375 1.140625l-0.71875 -1.5q1.109375 -0.375 1.578125 -1.015625q0.46875 -0.625 0.5 -1.734375l-1.765625 0l0 -3.65625zm17.24942 -6.640625q-1.421875 -0.59375 -2.0625 -1.640625q-0.640625 -1.046875 -0.640625 -2.296875q0 -2.140625 1.484375 -3.53125q1.5 -1.390625 4.234375 -1.390625q2.734375 0 4.234375 1.390625q1.5 1.390625 1.5 3.53125q0 1.328125 -0.6875 2.359375q-0.6875 1.03125 -1.9375 1.578125q1.578125 0.640625 2.40625 1.875q0.828125 1.21875 0.828125 2.8125q0 2.640625 -1.6875 4.296875q-1.6875 1.65625 -4.484375 1.65625q-2.59375 0 -4.328125 -1.375q-2.046875 -1.609375 -2.046875 -4.421875q0 -1.546875 0.765625 -2.84375q0.765625 -1.296875 2.421875 -2.0zm0.765625 -3.6875q0 1.09375 0.609375 1.71875q0.625 0.609375 1.640625 0.609375q1.046875 0 1.671875 -0.625q0.625 -0.625 0.625 -1.703125q0 -1.03125 -0.625 -1.640625q-0.609375 -0.625 -1.625 -0.625q-1.046875 0 -1.671875 0.625q-0.625 0.625 -0.625 1.640625zm-0.34375 8.171875q0 1.515625 0.765625 2.359375q0.78125 0.84375 1.9375 0.84375q1.140625 0 1.875 -0.8125q0.75 -0.8125 0.75 -2.34375q0 -1.34375 -0.765625 -2.15625q-0.75 -0.8125 -1.90625 -0.8125q-1.34375 0 -2.0 0.921875q-0.65625 0.921875 -0.65625 2.0zm11.965576 2.15625l3.65625 0l0 2.609375q0 1.59375 -0.28125 2.5q-0.265625 0.921875 -1.03125 1.65625q-0.765625 0.734375 -1.9375 1.140625l-0.71875 -1.5q1.109375 -0.375 1.578125 -1.015625q0.46875 -0.625 0.5 -1.734375l-1.765625 0l0 -3.65625zm14.171295 -1.25l3.640625 -0.375q0.15625 1.234375 0.921875 1.953125q0.765625 0.71875 1.765625 0.71875q1.15625 0 1.9375 -0.921875q0.796875 -0.9375 0.796875 -2.8125q0 -1.75 -0.78125 -2.625q-0.78125 -0.890625 -2.046875 -0.890625q-1.578125 0 -2.828125 1.40625l-2.96875 -0.4375l1.875 -9.9375l9.671875 0l0 3.4375l-6.890625 0l-0.578125 3.234375q1.21875 -0.609375 2.5 -0.609375q2.4375 0 4.125 1.765625q1.6875 1.765625 1.6875 4.59375q0 2.359375 -1.359375 4.203125q-1.859375 2.53125 -5.171875 2.53125q-2.640625 0 -4.3125 -1.421875q-1.65625 -1.421875 -1.984375 -3.8125zm15.465546 1.25l3.65625 0l0 2.609375q0 1.59375 -0.28125 2.5q-0.265625 0.921875 -1.03125 1.65625q-0.765625 0.734375 -1.9375 1.140625l-0.71875 -1.5q1.109375 -0.375 1.578125 -1.015625q0.46875 -0.625 0.5 -1.734375l-1.765625 0l0 -3.65625zm13.983795 -1.40625l3.546875 -0.4375q0.171875 1.359375 0.90625 2.078125q0.75 0.71875 1.796875 0.71875q1.125 0 1.90625 -0.859375q0.78125 -0.859375 0.78125 -2.328125q0 -1.375 -0.75 -2.171875q-0.734375 -0.8125 -1.8125 -0.8125q-0.703125 0 -1.671875 0.265625l0.40625 -2.96875q1.484375 0.03125 2.265625 -0.640625q0.78125 -0.6875 0.78125 -1.828125q0 -0.953125 -0.578125 -1.53125q-0.578125 -0.578125 -1.53125 -0.578125q-0.921875 0 -1.59375 0.65625q-0.65625 0.65625 -0.8125 1.90625l-3.359375 -0.578125q0.34375 -1.734375 1.046875 -2.765625q0.71875 -1.03125 1.984375 -1.625q1.265625 -0.59375 2.84375 -0.59375q2.703125 0 4.328125 1.71875q1.34375 1.40625 1.34375 3.171875q0 2.515625 -2.75 4.015625q1.640625 0.34375 2.609375 1.578125q0.984375 1.21875 0.984375 2.9375q0 2.515625 -1.828125 4.296875q-1.828125 1.765625 -4.5625 1.765625q-2.59375 0 -4.296875 -1.484375q-1.703125 -1.5 -1.984375 -3.90625zm15.653076 1.40625l3.65625 0l0 2.609375q0 1.59375 -0.28125 2.5q-0.265625 0.921875 -1.03125 1.65625q-0.765625 0.734375 -1.9375 1.140625l-0.71875 -1.5q1.109375 -0.375 1.578125 -1.015625q0.46875 -0.625 0.5 -1.734375l-1.765625 0l0 -3.65625zm20.296295 -15.5q2.78125 0 4.34375 1.96875q1.859375 2.34375 1.859375 7.78125q0 5.40625 -1.875 7.78125q-1.546875 1.953125 -4.328125 1.953125q-2.78125 0 -4.484375 -2.140625q-1.703125 -2.140625 -1.703125 -7.640625q0 -5.390625 1.875 -7.75q1.546875 -1.953125 4.3125 -1.953125zm0 3.03125q-0.65625 0 -1.1875 0.421875q-0.515625 0.421875 -0.796875 1.515625q-0.375 1.421875 -0.375 4.78125q0 3.359375 0.328125 4.609375q0.34375 1.25 0.859375 1.671875q0.515625 0.421875 1.171875 0.421875q0.671875 0 1.1875 -0.421875q0.515625 -0.421875 0.8125 -1.515625q0.375 -1.40625 0.375 -4.765625q0 -3.359375 -0.34375 -4.609375q-0.34375 -1.265625 -0.859375 -1.6875q-0.5 -0.421875 -1.171875 -0.421875zm9.340546 12.46875l3.65625 0l0 2.609375q0 1.59375 -0.28125 2.5q-0.265625 0.921875 -1.03125 1.65625q-0.765625 0.734375 -1.9375 1.140625l-0.71875 -1.5q1.109375 -0.375 1.578125 -1.015625q0.46875 -0.625 0.5 -1.734375l-1.765625 0l0 -3.65625zm13.983795 -1.40625l3.546875 -0.4375q0.171875 1.359375 0.90625 2.078125q0.75 0.71875 1.796875 0.71875q1.125 0 1.90625 -0.859375q0.78125 -0.859375 0.78125 -2.328125q0 -1.375 -0.75 -2.171875q-0.734375 -0.8125 -1.8125 -0.8125q-0.703125 0 -1.671875 0.265625l0.40625 -2.96875q1.484375 0.03125 2.265625 -0.640625q0.78125 -0.6875 0.78125 -1.828125q0 -0.953125 -0.578125 -1.53125q-0.578125 -0.578125 -1.53125 -0.578125q-0.921875 0 -1.59375 0.65625q-0.65625 0.65625 -0.8125 1.90625l-3.359375 -0.578125q0.34375 -1.734375 1.046875 -2.765625q0.71875 -1.03125 1.984375 -1.625q1.265625 -0.59375 2.84375 -0.59375q2.703125 0 4.328125 1.71875q1.34375 1.40625 1.34375 3.171875q0 2.515625 -2.75 4.015625q1.640625 0.34375 2.609375 1.578125q0.984375 1.21875 0.984375 2.9375q0 2.515625 -1.828125 4.296875q-1.828125 1.765625 -4.5625 1.765625q-2.59375 0 -4.296875 -1.484375q-1.703125 -1.5 -1.984375 -3.90625zm28.199646 -14.015625l0 24.453125l-6.46875 0l0 -2.875l3.0 0l0 -18.734375l-3.0 0l0 -2.84375l6.46875 0z" fill-rule="nonzero"/><path fill="#000000" fill-opacity="0.0" d="m238.88846 93.41207l32.346436 0l0 42.015755l-32.346436 0z" fill-rule="evenodd"/><path fill="#000000" d="m249.21658 115.95707q0 -1.703125 0.5 -3.453125q0.5 -1.75 1.125 -2.796875q0.625 -1.046875 1.28125 -1.640625q0.671875 -0.59375 1.3125 -0.859375q0.640625 -0.28125 1.421875 -0.28125q1.53125 0 2.546875 1.140625q1.03125 1.140625 1.03125 3.28125q0 2.21875 -0.703125 4.390625q-0.84375 2.5625 -2.34375 3.84375q-1.140625 0.984375 -2.609375 0.984375q-1.5 0 -2.53125 -1.171875q-1.03125 -1.1875 -1.03125 -3.4375zm1.59375 0.40625q0 1.234375 0.40625 1.921875q0.546875 0.96875 1.640625 0.96875q0.96875 0 1.75 -0.875q1.125 -1.21875 1.6875 -3.5625q0.578125 -2.359375 0.578125 -3.859375q0 -1.4375 -0.5625 -2.078125q-0.546875 -0.640625 -1.4375 -0.640625q-0.65625 0 -1.234375 0.34375q-0.5625 0.328125 -1.078125 1.15625q-0.75 1.15625 -1.296875 3.46875q-0.453125 1.953125 -0.453125 3.15625z" fill-rule="nonzero"/><path fill="#000000" fill-opacity="0.0" d="m268.64206 93.41207l32.346466 0l0 42.015755l-32.346466 0z" fill-rule="evenodd"/><path fill="#000000" d="m282.12643 120.33207l2.125 -10.078125q-1.375 1.0625 -3.84375 1.71875l0.296875 -1.5q1.234375 -0.484375 2.4375 -1.28125q1.203125 -0.796875 1.796875 -1.390625q0.359375 -0.359375 0.6875 -0.875l0.96875 0l-2.796875 13.40625l-1.671875 0z" fill-rule="nonzero"/><path fill="#000000" fill-opacity="0.0" d="m298.56122 93.41207l32.346466 0l0 42.015755l-32.346466 0z" fill-rule="evenodd"/><path fill="#000000" d="m308.65497 120.33207q0.25 -1.1875 0.703125 -2.0q0.453125 -0.8125 1.203125 -1.53125q0.75 -0.71875 2.875 -2.421875q1.296875 -1.03125 1.765625 -1.53125q0.6875 -0.703125 1.0 -1.390625q0.203125 -0.46875 0.203125 -1.015625q0 -0.90625 -0.65625 -1.546875q-0.640625 -0.65625 -1.59375 -0.65625q-0.9375 0 -1.640625 0.65625q-0.703125 0.65625 -1.0 2.09375l-1.609375 -0.234375q0.234375 -1.78125 1.375 -2.796875q1.140625 -1.03125 2.84375 -1.03125q1.140625 0 2.0625 0.46875q0.9375 0.46875 1.390625 1.328125q0.46875 0.859375 0.46875 1.765625q0 1.328125 -0.953125 2.5625q-0.578125 0.765625 -3.421875 3.015625q-1.21875 0.96875 -1.8125 1.59375q-0.59375 0.609375 -0.90625 1.15625l5.984375 0l-0.3125 1.515625l-7.96875 0z" fill-rule="nonzero"/><path fill="#000000" fill-opacity="0.0" d="m328.14627 93.41207l32.346436 0l0 42.015755l-32.346436 0z" fill-rule="evenodd"/><path fill="#000000" d="m338.1619 116.83207l1.609375 -0.203125q0.1875 1.40625 0.796875 2.015625q0.625 0.609375 1.640625 0.609375q1.21875 0 2.109375 -0.875q0.890625 -0.875 0.890625 -2.015625q0 -0.984375 -0.671875 -1.625q-0.65625 -0.640625 -1.78125 -0.640625q-0.125 0 -0.53125 0.046875l0.28125 -1.375q0.25 0.03125 0.46875 0.03125q1.40625 0 2.15625 -0.6875q0.765625 -0.6875 0.765625 -1.6875q0 -0.921875 -0.625 -1.546875q-0.625 -0.640625 -1.515625 -0.640625q-0.890625 0 -1.59375 0.65625q-0.703125 0.640625 -0.90625 1.8125l-1.625 -0.328125q0.40625 -1.65625 1.546875 -2.546875q1.140625 -0.90625 2.6875 -0.90625q1.640625 0 2.65625 1.0q1.015625 0.984375 1.015625 2.4375q0 1.046875 -0.546875 1.84375q-0.546875 0.78125 -1.65625 1.296875q0.78125 0.46875 1.171875 1.125q0.390625 0.65625 0.390625 1.5q0 1.796875 -1.34375 3.125q-1.34375 1.3125 -3.21875 1.3125q-1.8125 0 -2.9375 -1.015625q-1.109375 -1.015625 -1.234375 -2.71875z" fill-rule="nonzero"/><path fill="#000000" fill-opacity="0.0" d="m358.23227 93.41207l32.346466 0l0 42.015755l-32.346466 0z" fill-rule="evenodd"/><path fill="#000000" d="m372.8104 120.33207l0.71875 -3.40625l-5.453125 0l0.34375 -1.625l7.484375 -8.328125l1.34375 0l-1.765625 8.5l1.875 0l-0.3125 1.453125l-1.875 0l-0.71875 3.40625l-1.640625 0zm1.015625 -4.859375l1.171875 -5.578125l-4.984375 5.578125l3.8125 0z" fill-rule="nonzero"/><path fill="#000000" fill-opacity="0.0" d="m387.6496 93.41207l32.346466 0l0 42.015755l-32.346466 0z" fill-rule="evenodd"/><path fill="#000000" d="m397.94647 116.51957l1.6875 -0.171875q-0.03125 0.359375 -0.03125 0.4375q0 0.59375 0.3125 1.203125q0.3125 0.609375 0.828125 0.9375q0.53125 0.328125 1.109375 0.328125q0.765625 0 1.546875 -0.53125q0.796875 -0.53125 1.28125 -1.53125q0.5 -1.015625 0.5 -2.015625q0 -1.125 -0.65625 -1.796875q-0.65625 -0.671875 -1.734375 -0.671875q-0.71875 0 -1.359375 0.34375q-0.640625 0.34375 -1.203125 1.046875l-1.4375 -0.109375l2.015625 -6.828125l6.515625 0l-0.3125 1.515625l-5.078125 0l-1.0 3.390625q0.5625 -0.40625 1.15625 -0.609375q0.609375 -0.203125 1.234375 -0.203125q1.53125 0 2.515625 1.015625q0.984375 1.0 0.984375 2.765625q0 1.53125 -0.6875 2.828125q-0.671875 1.296875 -1.859375 2.0q-1.171875 0.703125 -2.53125 0.703125q-1.15625 0 -2.046875 -0.515625q-0.875 -0.53125 -1.3125 -1.4375q-0.4375 -0.90625 -0.4375 -1.828125q0 -0.09375 0 -0.265625z" fill-rule="nonzero"/><path fill="#000000" fill-opacity="0.0" d="m417.4029 93.41207l32.346436 0l0 42.015755l-32.346436 0z" fill-rule="evenodd"/><path fill="#000000" d="m430.1529 112.58207q0.703125 -0.5625 1.390625 -0.84375q0.6875 -0.296875 1.359375 -0.296875q1.515625 0 2.5 1.046875q1.0 1.03125 1.0 2.78125q0 2.28125 -1.46875 3.890625q-1.28125 1.40625 -3.109375 1.40625q-1.65625 0 -2.765625 -1.21875q-1.09375 -1.21875 -1.09375 -3.46875q0 -2.015625 0.703125 -4.171875q0.546875 -1.640625 1.34375 -2.703125q0.8125 -1.078125 1.71875 -1.578125q0.90625 -0.5 2.046875 -0.5q1.375 0 2.234375 0.859375q0.859375 0.84375 0.984375 2.421875l-1.53125 0.15625q-0.125 -1.09375 -0.609375 -1.578125q-0.484375 -0.484375 -1.1875 -0.484375q-0.75 0 -1.5 0.578125q-0.734375 0.578125 -1.28125 1.703125q-0.53125 1.125 -0.734375 2.0zm-0.578125 4.0q0 1.125 0.703125 1.90625q0.703125 0.765625 1.59375 0.765625q0.609375 0 1.296875 -0.46875q0.703125 -0.46875 1.1875 -1.421875q0.484375 -0.96875 0.484375 -1.90625q0 -1.234375 -0.671875 -1.953125q-0.671875 -0.734375 -1.609375 -0.734375q-1.09375 0 -2.046875 1.078125q-0.9375 1.0625 -0.9375 2.734375z" fill-rule="nonzero"/><path fill="#000000" fill-opacity="0.0" d="m446.26025 93.41207l32.346436 0l0 42.015755l-32.346436 0z" fill-rule="evenodd"/><path fill="#000000" d="m457.96338 120.33207q0.21875 -1.34375 0.9375 -3.25q0.84375 -2.28125 2.21875 -4.53125q1.375 -2.25 3.0625 -3.875l-6.65625 0l0.3125 -1.515625l8.53125 0l-0.3125 1.515625q-2.171875 1.90625 -3.796875 4.90625q-1.875 3.46875 -2.578125 6.75l-1.71875 0z" fill-rule="nonzero"/><path fill="#000000" fill-opacity="0.0" d="m253.4437 130.55905l0 24.283463" fill-rule="evenodd"/><path stroke="#000000" stroke-width="1.0" stroke-linejoin="round" stroke-linecap="butt" d="m253.4437 130.55905l0 18.283463" fill-rule="evenodd"/><path fill="#000000" stroke="#000000" stroke-width="1.0" stroke-linecap="butt" d="m251.79196 148.84251l1.6517334 4.538101l1.6517334 -4.538101z" fill-rule="evenodd"/><path fill="#000000" fill-opacity="0.0" d="m283.31378 130.55905l0 24.283463" fill-rule="evenodd"/><path stroke="#000000" stroke-width="1.0" stroke-linejoin="round" stroke-linecap="butt" d="m283.31378 130.55905l0 18.283463" fill-rule="evenodd"/><path fill="#000000" stroke="#000000" stroke-width="1.0" stroke-linecap="butt" d="m281.66205 148.84251l1.6517334 4.538101l1.6517334 -4.538101z" fill-rule="evenodd"/><path fill="#000000" fill-opacity="0.0" d="m313.23242 130.55905l0 24.283463" fill-rule="evenodd"/><path stroke="#000000" stroke-width="1.0" stroke-linejoin="round" stroke-linecap="butt" d="m313.2324 130.55905l0 18.283463" fill-rule="evenodd"/><path fill="#000000" stroke="#000000" stroke-width="1.0" stroke-linecap="butt" d="m311.5807 148.84251l1.6517029 4.538101l1.6517334 -4.538101z" fill-rule="evenodd"/><path fill="#000000" fill-opacity="0.0" d="m342.81772 130.55905l0 24.283463" fill-rule="evenodd"/><path stroke="#000000" stroke-width="1.0" stroke-linejoin="round" stroke-linecap="butt" d="m342.81772 130.55905l0 18.283463" fill-rule="evenodd"/><path fill="#000000" stroke="#000000" stroke-width="1.0" stroke-linecap="butt" d="m341.166 148.84251l1.6517334 4.538101l1.6517334 -4.538101z" fill-rule="evenodd"/><path fill="#000000" fill-opacity="0.0" d="m373.40433 130.55905l0 24.283463" fill-rule="evenodd"/><path stroke="#000000" stroke-width="1.0" stroke-linejoin="round" stroke-linecap="butt" d="m373.40433 130.55905l0 18.283463" fill-rule="evenodd"/><path fill="#000000" stroke="#000000" stroke-width="1.0" stroke-linecap="butt" d="m371.7526 148.84251l1.6517334 4.538101l1.6517334 -4.538101z" fill-rule="evenodd"/><path fill="#000000" fill-opacity="0.0" d="m402.32166 130.55905l0 24.283463" fill-rule="evenodd"/><path stroke="#000000" stroke-width="1.0" stroke-linejoin="round" stroke-linecap="butt" d="m402.32166 130.55905l0 18.283463" fill-rule="evenodd"/><path fill="#000000" stroke="#000000" stroke-width="1.0" stroke-linecap="butt" d="m400.66992 148.84251l1.6517334 4.538101l1.6517334 -4.538101z" fill-rule="evenodd"/><path fill="#000000" fill-opacity="0.0" d="m432.07495 130.55905l0 24.283463" fill-rule="evenodd"/><path stroke="#000000" stroke-width="1.0" stroke-linejoin="round" stroke-linecap="butt" d="m432.07492 130.55905l0 18.283463" fill-rule="evenodd"/><path fill="#000000" stroke="#000000" stroke-width="1.0" stroke-linecap="butt" d="m430.4232 148.84251l1.6517334 4.538101l1.6517334 -4.538101z" fill-rule="evenodd"/><path fill="#000000" fill-opacity="0.0" d="m461.4437 130.55905l0 24.283463" fill-rule="evenodd"/><path stroke="#000000" stroke-width="1.0" stroke-linejoin="round" stroke-linecap="butt" d="m461.4437 130.55905l0 18.283463" fill-rule="evenodd"/><path fill="#000000" stroke="#000000" stroke-width="1.0" stroke-linecap="butt" d="m459.79196 148.84251l1.6517334 4.538101l1.6517334 -4.538101z" fill-rule="evenodd"/><path fill="#000000" fill-opacity="0.0" d="m492.19028 75.41207l120.00003 0l0 42.015747l-120.00003 0z" fill-rule="evenodd"/><path fill="#000000" d="m501.15903 102.33207l5.125 -13.359375l1.90625 0l5.4687805 13.359375l-2.0156555 0l-1.546875 -4.046875l-5.59375 0l-1.46875 4.046875l-1.875 0zm3.859375 -5.484375l4.53125 0l-1.40625 -3.703125q-0.625 -1.6875 -0.9375 -2.765625q-0.265625 1.28125 -0.71875 2.546875l-1.46875 3.921875zm9.834198 5.484375l0 -9.671875l1.46875 0l0 1.46875q0.5625 -1.03125 1.03125 -1.359375q0.484375 -0.328125 1.0625 -0.328125q0.828125 0 1.6875 0.53125l-0.5625 1.515625q-0.609375 -0.359375 -1.203125 -0.359375q-0.546875 0 -0.96875 0.328125q-0.421875 0.328125 -0.609375 0.890625q-0.28125 0.875 -0.28125 1.921875l0 5.0625l-1.625 0zm6.2127075 0l0 -9.671875l1.46875 0l0 1.46875q0.5625 -1.03125 1.03125 -1.359375q0.484375 -0.328125 1.0625 -0.328125q0.828125 0 1.6875 0.53125l-0.5625 1.515625q-0.609375 -0.359375 -1.203125 -0.359375q-0.546875 0 -0.96875 0.328125q-0.421875 0.328125 -0.609375 0.890625q-0.28125 0.875 -0.28125 1.921875l0 5.0625l-1.625 0zm12.5407715 -1.1875q-0.921875 0.765625 -1.765625 1.09375q-0.828125 0.3125 -1.796875 0.3125q-1.59375 0 -2.453125 -0.78125q-0.859375 -0.78125 -0.859375 -1.984375q0 -0.71875 0.328125 -1.296875q0.328125 -0.59375 0.84375 -0.9375q0.53125 -0.359375 1.1875 -0.546875q0.46875 -0.125 1.453125 -0.25q1.984375 -0.234375 2.921875 -0.5625q0.015625 -0.34375 0.015625 -0.421875q0 -1.0 -0.46875 -1.421875q-0.625 -0.546875 -1.875 -0.546875q-1.15625 0 -1.703125 0.40625q-0.546875 0.40625 -0.8125 1.421875l-1.609375 -0.21875q0.21875 -1.015625 0.71875 -1.640625q0.5 -0.640625 1.453125 -0.984375q0.953125 -0.34375 2.1875 -0.34375q1.25 0 2.015625 0.296875q0.78125 0.28125 1.140625 0.734375q0.375 0.4375 0.515625 1.109375q0.078125 0.421875 0.078125 1.515625l0 2.1875q0 2.28125 0.109375 2.890625q0.109375 0.59375 0.40625 1.15625l-1.703125 0q-0.265625 -0.515625 -0.328125 -1.1875zm-0.140625 -3.671875q-0.890625 0.375 -2.671875 0.625q-1.015625 0.140625 -1.4375 0.328125q-0.421875 0.1875 -0.65625 0.53125q-0.21875 0.34375 -0.21875 0.78125q0 0.65625 0.5 1.09375q0.5 0.4375 1.453125 0.4375q0.9375 0 1.671875 -0.40625q0.75 -0.421875 1.09375 -1.140625q0.265625 -0.5625 0.265625 -1.640625l0 -0.609375zm4.1257324 8.578125l-0.1875 -1.53125q0.546875 0.140625 0.9375 0.140625q0.546875 0 0.875 -0.1875q0.328125 -0.171875 0.546875 -0.5q0.15625 -0.25 0.5 -1.21875q0.046875 -0.140625 0.140625 -0.40625l-3.671875 -9.6875l1.765625 0l2.015625 5.59375q0.390625 1.078125 0.703125 2.25q0.28125 -1.125 0.671875 -2.203125l2.078125 -5.640625l1.640625 0l-3.6875 9.828125q-0.59375 1.609375 -0.921875 2.203125q-0.4375 0.8125 -1.0 1.1875q-0.5625 0.375 -1.34375 0.375q-0.484375 0 -1.0625 -0.203125zm14.589539 -15.1875l0 -1.890625l1.640625 0l0 1.890625l-1.640625 0zm0 11.46875l0 -9.671875l1.640625 0l0 9.671875l-1.640625 0zm4.1448364 0l0 -9.671875l1.46875 0l0 1.375q1.0625 -1.59375 3.078125 -1.59375q0.875 0 1.609375 0.3125q0.734375 0.3125 1.09375 0.828125q0.375 0.5 0.515625 1.203125q0.09375 0.453125 0.09375 1.59375l0 5.953125l-1.640625 0l0 -5.890625q0 -1.0 -0.203125 -1.484375q-0.1875 -0.5 -0.671875 -0.796875q-0.484375 -0.296875 -1.140625 -0.296875q-1.046875 0 -1.8125 0.671875q-0.75 0.65625 -0.75 2.515625l0 5.28125l-1.640625 0zm16.641357 0l0 -1.21875q-0.90625 1.4375 -2.703125 1.4375q-1.15625 0 -2.125 -0.640625q-0.96875 -0.640625 -1.5 -1.78125q-0.53125 -1.140625 -0.53125 -2.625q0 -1.453125 0.484375 -2.625q0.484375 -1.1875 1.4375 -1.8125q0.96875 -0.625 2.171875 -0.625q0.875 0 1.546875 0.375q0.6875 0.359375 1.109375 0.953125l0 -4.796875l1.640625 0l0 13.359375l-1.53125 0zm-5.171875 -4.828125q0 1.859375 0.78125 2.78125q0.78125 0.921875 1.84375 0.921875q1.078125 0 1.828125 -0.875q0.75 -0.890625 0.75 -2.6875q0 -1.984375 -0.765625 -2.90625q-0.765625 -0.9375 -1.890625 -0.9375q-1.078125 0 -1.8125 0.890625q-0.734375 0.890625 -0.734375 2.8125zm15.906921 1.71875l1.6875 0.203125q-0.40625 1.484375 -1.484375 2.3125q-1.078125 0.8125 -2.765625 0.8125q-2.125 0 -3.375 -1.296875q-1.234375 -1.3125 -1.234375 -3.671875q0 -2.453125 1.25 -3.796875q1.265625 -1.34375 3.265625 -1.34375q1.9375 0 3.15625 1.328125q1.234375 1.3125 1.234375 3.703125q0 0.15625 0 0.4375l-7.21875 0q0.09375 1.59375 0.90625 2.453125q0.8125 0.84375 2.015625 0.84375q0.90625 0 1.546875 -0.46875q0.640625 -0.484375 1.015625 -1.515625zm-5.390625 -2.65625l5.40625 0q-0.109375 -1.21875 -0.625 -1.828125q-0.78125 -0.953125 -2.03125 -0.953125q-1.125 0 -1.90625 0.765625q-0.765625 0.75 -0.84375 2.015625zm8.047607 5.765625l3.53125 -5.03125l-3.265625 -4.640625l2.046875 0l1.484375 2.265625q0.421875 0.640625 0.671875 1.078125q0.40625 -0.59375 0.734375 -1.0625l1.640625 -2.28125l1.953125 0l-3.34375 4.546875l3.59375 5.125l-2.015625 0l-1.984375 -3.0l-0.515625 -0.8125l-2.546875 3.8125l-1.984375 0z" fill-rule="nonzero"/><path fill="#000000" fill-opacity="0.0" d="m126.29396 162.19292l94.29921 0l0 42.015747l-94.29921 0z" fill-rule="evenodd"/><path fill="#000000" d="m141.43275 189.11292l-3.90625 -9.671875l2.6875 0l1.828125 4.9375l0.53125 1.640625q0.203125 -0.625 0.265625 -0.828125q0.125 -0.40625 0.265625 -0.8125l1.84375 -4.9375l2.625 0l-3.84375 9.671875l-2.296875 0zm9.625717 -6.71875l-2.328125 -0.421875q0.40625 -1.40625 1.359375 -2.078125q0.953125 -0.671875 2.84375 -0.671875q1.703125 0 2.546875 0.40625q0.84375 0.40625 1.171875 1.03125q0.34375 0.625 0.34375 2.28125l-0.015625 3.0q0 1.265625 0.109375 1.875q0.125 0.609375 0.46875 1.296875l-2.53125 0q-0.109375 -0.25 -0.25 -0.75q-0.0625 -0.234375 -0.09375 -0.3125q-0.65625 0.640625 -1.40625 0.96875q-0.734375 0.3125 -1.59375 0.3125q-1.484375 0 -2.34375 -0.8125q-0.859375 -0.8125 -0.859375 -2.046875q0 -0.828125 0.390625 -1.46875q0.390625 -0.640625 1.09375 -0.96875q0.703125 -0.34375 2.03125 -0.609375q1.796875 -0.328125 2.484375 -0.625l0 -0.25q0 -0.75 -0.359375 -1.0625q-0.359375 -0.3125 -1.375 -0.3125q-0.6875 0 -1.078125 0.28125q-0.375 0.265625 -0.609375 0.9375zm3.421875 2.078125q-0.484375 0.15625 -1.5625 0.390625q-1.0625 0.21875 -1.390625 0.4375q-0.5 0.359375 -0.5 0.90625q0 0.53125 0.40625 0.9375q0.40625 0.390625 1.015625 0.390625q0.703125 0 1.328125 -0.46875q0.46875 -0.34375 0.609375 -0.84375q0.09375 -0.328125 0.09375 -1.25l0 -0.5zm5.047592 4.640625l0 -13.359375l2.5625 0l0 13.359375l-2.5625 0zm11.542679 0l0 -1.453125q-0.53125 0.78125 -1.390625 1.234375q-0.859375 0.4375 -1.8125 0.4375q-0.96875 0 -1.75 -0.421875q-0.765625 -0.4375 -1.125 -1.203125q-0.34375 -0.78125 -0.34375 -2.140625l0 -6.125l2.5625 0l0 4.4375q0 2.046875 0.140625 2.515625q0.140625 0.453125 0.515625 0.71875q0.375 0.265625 0.953125 0.265625q0.65625 0 1.171875 -0.359375q0.515625 -0.359375 0.703125 -0.890625q0.203125 -0.53125 0.203125 -2.609375l0 -4.078125l2.546875 0l0 9.671875l-2.375 0zm10.630356 -3.078125l2.546875 0.421875q-0.484375 1.40625 -1.546875 2.140625q-1.0625 0.734375 -2.65625 0.734375q-2.515625 0 -3.734375 -1.65625q-0.953125 -1.3125 -0.953125 -3.328125q0 -2.40625 1.25 -3.765625q1.265625 -1.359375 3.1875 -1.359375q2.15625 0 3.40625 1.421875q1.25 1.421875 1.1875 4.375l-6.40625 0q0.03125 1.140625 0.609375 1.78125q0.59375 0.625 1.484375 0.625q0.59375 0 1.0 -0.328125q0.421875 -0.328125 0.625 -1.0625zm0.15625 -2.59375q-0.03125 -1.109375 -0.578125 -1.6875q-0.546875 -0.578125 -1.328125 -0.578125q-0.84375 0 -1.390625 0.609375q-0.546875 0.609375 -0.53125 1.65625l3.828125 0zm3.7194672 2.90625l2.5625 -0.390625q0.171875 0.75 0.671875 1.140625q0.5 0.390625 1.40625 0.390625q0.984375 0 1.484375 -0.375q0.34375 -0.25 0.34375 -0.671875q0 -0.296875 -0.1875 -0.484375q-0.1875 -0.1875 -0.859375 -0.34375q-3.09375 -0.6875 -3.921875 -1.25q-1.140625 -0.78125 -1.140625 -2.171875q0 -1.265625 0.984375 -2.109375q1.0 -0.859375 3.078125 -0.859375q1.984375 0 2.953125 0.65625q0.96875 0.640625 1.328125 1.90625l-2.40625 0.4375q-0.15625 -0.5625 -0.59375 -0.859375q-0.421875 -0.296875 -1.234375 -0.296875q-1.0 0 -1.4375 0.28125q-0.296875 0.203125 -0.296875 0.515625q0 0.265625 0.25 0.46875q0.34375 0.25 2.390625 0.71875q2.046875 0.453125 2.859375 1.140625q0.796875 0.671875 0.796875 1.890625q0 1.34375 -1.109375 2.296875q-1.109375 0.953125 -3.28125 0.953125q-1.984375 0 -3.140625 -0.796875q-1.140625 -0.8125 -1.5 -2.1875zm15.902771 -4.671875l0 -2.34375l9.328125 0l0 2.34375l-9.328125 0zm0 4.046875l0 -2.359375l9.328125 0l0 2.359375l-9.328125 0z" fill-rule="nonzero"/><path fill="#000000" fill-opacity="0.0" d="m86.09974 211.69554l134.48819 0l0 42.015747l-134.48819 0z" fill-rule="evenodd"/><path fill="#000000" d="m102.03805 238.61554l-3.90625 -9.671875l2.6875 0l1.828125 4.9375l0.53125 1.640625q0.203125 -0.625 0.265625 -0.828125q0.125 -0.40625 0.265625 -0.8125l1.84375 -4.9375l2.625 0l-3.84375 9.671875l-2.296875 0zm9.625717 -6.71875l-2.328125 -0.421875q0.40625 -1.40625 1.359375 -2.078125q0.953125 -0.671875 2.84375 -0.671875q1.703125 0 2.546875 0.40625q0.84375 0.40625 1.171875 1.03125q0.34375 0.625 0.34375 2.28125l-0.015625 3.0q0 1.265625 0.109375 1.875q0.125 0.609375 0.46875 1.296875l-2.53125 0q-0.109375 -0.25 -0.25 -0.75q-0.0625 -0.234375 -0.09375 -0.3125q-0.65625 0.640625 -1.40625 0.96875q-0.734375 0.3125 -1.59375 0.3125q-1.484375 0 -2.34375 -0.8125q-0.859375 -0.8125 -0.859375 -2.046875q0 -0.828125 0.390625 -1.46875q0.390625 -0.640625 1.09375 -0.96875q0.703125 -0.34375 2.03125 -0.609375q1.796875 -0.328125 2.484375 -0.625l0 -0.25q0 -0.75 -0.359375 -1.0625q-0.359375 -0.3125 -1.375 -0.3125q-0.6875 0 -1.078125 0.28125q-0.375 0.265625 -0.609375 0.9375zm3.421875 2.078125q-0.484375 0.15625 -1.5625 0.390625q-1.0625 0.21875 -1.390625 0.4375q-0.5 0.359375 -0.5 0.90625q0 0.53125 0.40625 0.9375q0.40625 0.390625 1.015625 0.390625q0.703125 0 1.328125 -0.46875q0.46875 -0.34375 0.609375 -0.84375q0.09375 -0.328125 0.09375 -1.25l0 -0.5zm5.047592 4.640625l0 -13.359375l2.5625 0l0 13.359375l-2.5625 0zm11.542671 0l0 -1.453125q-0.53125 0.78125 -1.390625 1.234375q-0.859375 0.4375 -1.8125 0.4375q-0.9687424 0 -1.7499924 -0.421875q-0.765625 -0.4375 -1.125 -1.203125q-0.34375 -0.78125 -0.34375 -2.140625l0 -6.125l2.5625 0l0 4.4375q0 2.046875 0.140625 2.515625q0.14061737 0.453125 0.5156174 0.71875q0.375 0.265625 0.953125 0.265625q0.65625 0 1.171875 -0.359375q0.515625 -0.359375 0.703125 -0.890625q0.203125 -0.53125 0.203125 -2.609375l0 -4.078125l2.546875 0l0 9.671875l-2.375 0zm10.630356 -3.078125l2.546875 0.421875q-0.484375 1.40625 -1.546875 2.140625q-1.0625 0.734375 -2.65625 0.734375q-2.515625 0 -3.734375 -1.65625q-0.953125 -1.3125 -0.953125 -3.328125q0 -2.40625 1.25 -3.765625q1.265625 -1.359375 3.1875 -1.359375q2.15625 0 3.40625 1.421875q1.25 1.421875 1.1875 4.375l-6.40625 0q0.03125 1.140625 0.609375 1.78125q0.59375 0.625 1.484375 0.625q0.59375 0 1.0 -0.328125q0.421875 -0.328125 0.625 -1.0625zm0.15625 -2.59375q-0.03125 -1.109375 -0.578125 -1.6875q-0.546875 -0.578125 -1.328125 -0.578125q-0.84375 0 -1.390625 0.609375q-0.546875 0.609375 -0.53125 1.65625l3.828125 0zm3.7194672 2.90625l2.5625 -0.390625q0.171875 0.75 0.671875 1.140625q0.5 0.390625 1.40625 0.390625q0.984375 0 1.484375 -0.375q0.34375 -0.25 0.34375 -0.671875q0 -0.296875 -0.1875 -0.484375q-0.1875 -0.1875 -0.859375 -0.34375q-3.09375 -0.6875 -3.921875 -1.25q-1.140625 -0.78125 -1.140625 -2.171875q0 -1.265625 0.984375 -2.109375q1.0 -0.859375 3.078125 -0.859375q1.984375 0 2.953125 0.65625q0.96875 0.640625 1.328125 1.90625l-2.40625 0.4375q-0.15625 -0.5625 -0.59375 -0.859375q-0.421875 -0.296875 -1.234375 -0.296875q-1.0 0 -1.4375 0.28125q-0.296875 0.203125 -0.296875 0.515625q0 0.265625 0.25 0.46875q0.34375 0.25 2.390625 0.71875q2.046875 0.453125 2.859375 1.140625q0.796875 0.671875 0.796875 1.890625q0 1.34375 -1.109375 2.296875q-1.109375 0.953125 -3.28125 0.953125q-1.984375 0 -3.140625 -0.796875q-1.140625 -0.8125 -1.5 -2.1875zm11.266342 6.53125l0 -17.125l4.53125 0l0 2.015625l-2.09375 0l0 13.09375l2.09375 0l0 2.015625l-4.53125 0zm12.228302 -3.765625l-2.5625 0l0 -9.640625q-1.40625 1.3125 -3.3125 1.9375l0 -2.328125q1.015625 -0.328125 2.1875 -1.234375q1.171875 -0.921875 1.609375 -2.140625l2.078125 0l0 13.40625zm4.860092 -7.109375l0 -2.5625l2.5625 0l0 2.5625l-2.5625 0zm0 7.109375l0 -2.5625l2.5625 0l0 2.5625l-2.5625 0zm5.087677 -3.546875l2.46875 -0.296875q0.125 0.953125 0.640625 1.453125q0.53125 0.5 1.265625 0.5q0.78125 0 1.328125 -0.59375q0.546875 -0.609375 0.546875 -1.640625q0 -0.953125 -0.53125 -1.515625q-0.515625 -0.578125 -1.25 -0.578125q-0.5 0 -1.1875 0.203125l0.28125 -2.09375q1.046875 0.03125 1.59375 -0.4375q0.546875 -0.484375 0.546875 -1.28125q0 -0.671875 -0.40625 -1.078125q-0.390625 -0.40625 -1.0625 -0.40625q-0.65625 0 -1.125 0.46875q-0.453125 0.453125 -0.5625 1.328125l-2.359375 -0.40625q0.25 -1.203125 0.734375 -1.921875q0.5 -0.734375 1.390625 -1.140625q0.890625 -0.421875 2.0 -0.421875q1.875 0 3.015625 1.203125q0.9375 0.984375 0.9375 2.21875q0 1.765625 -1.921875 2.8125q1.15625 0.234375 1.84375 1.09375q0.6875 0.859375 0.6875 2.0625q0 1.765625 -1.296875 3.015625q-1.28125 1.234375 -3.1875 1.234375q-1.8125 0 -3.015625 -1.046875q-1.1875 -1.046875 -1.375 -2.734375zm14.547592 -9.8125l0 17.125l-4.53125 0l0 -2.015625l2.109375 0l0 -13.109375l-2.109375 0l0 -2.0l4.53125 0zm7.302231 5.921875l0 -2.34375l9.328125 0l0 2.34375l-9.328125 0zm0 4.046875l0 -2.359375l9.328125 0l0 2.359375l-9.328125 0z" fill-rule="nonzero"/><path fill="#000000" fill-opacity="0.0" d="m272.10104 219.03293l0 0c0 -3.2210083 2.611145 -5.832138 5.8321533 -5.832138l45.65854 0c1.5467834 0 3.0302124 0.6144562 4.1239624 1.7081909c1.0937195 1.0937347 1.7081909 2.5771637 1.7081909 4.123947l0 23.32785c0 3.220993 -2.611145 5.832138 -5.8321533 5.832138l-45.65854 0c-3.2210083 0 -5.8321533 -2.611145 -5.8321533 -5.832138z" fill-rule="evenodd"/><path stroke="#000000" stroke-width="1.0" stroke-linejoin="round" stroke-linecap="butt" d="m272.10104 219.03293l0 0c0 -3.2210083 2.611145 -5.832138 5.8321533 -5.832138l45.65854 0c1.5467834 0 3.0302124 0.6144562 4.1239624 1.7081909c1.0937195 1.0937347 1.7081909 2.5771637 1.7081909 4.123947l0 23.32785c0 3.220993 -2.611145 5.832138 -5.8321533 5.832138l-45.65854 0c-3.2210083 0 -5.8321533 -2.611145 -5.8321533 -5.832138z" fill-rule="evenodd"/><path fill="#000000" fill-opacity="0.0" d="m220.59317 253.19948l288.8189 0l0 51.716537l-288.8189 0z" fill-rule="evenodd"/><path fill="#000000" d="m231.49942 293.17447l0 -24.453125l6.46875 0l0 2.875l-3.0 0l0 18.703125l3.0 0l0 2.875l-6.46875 0zm15.50145 -20.796875l0 -3.40625l12.51564 0l0 2.65625q-1.546875 1.53125 -3.15625 4.390625q-1.5937653 2.84375 -2.4375153 6.046875q-0.84375 3.203125 -0.828125 5.734375l-3.515625 0q0.078125 -3.953125 1.625 -8.0625q1.546875 -4.125 4.125 -7.359375l-8.328125 0zm15.528061 11.765625l3.65625 0l0 2.609375q0 1.59375 -0.28125 2.5q-0.265625 0.921875 -1.03125 1.65625q-0.765625 0.734375 -1.9375 1.140625l-0.71875 -1.5q1.109375 -0.375 1.578125 -1.015625q0.46875 -0.625 0.5 -1.734375l-1.765625 0l0 -3.65625zm14.171295 -1.25l3.640625 -0.375q0.15625 1.234375 0.921875 1.953125q0.765625 0.71875 1.765625 0.71875q1.15625 0 1.9375 -0.921875q0.796875 -0.9375 0.796875 -2.8125q0 -1.75 -0.78125 -2.625q-0.78125 -0.890625 -2.046875 -0.890625q-1.578125 0 -2.828125 1.40625l-2.96875 -0.4375l1.875 -9.9375l9.671875 0l0 3.4375l-6.890625 0l-0.578125 3.234375q1.21875 -0.609375 2.5 -0.609375q2.4375 0 4.125 1.765625q1.6875 1.765625 1.6875 4.59375q0 2.359375 -1.359375 4.203125q-1.859375 2.53125 -5.171875 2.53125q-2.640625 0 -4.3125 -1.421875q-1.65625 -1.421875 -1.984375 -3.8125zm15.465576 1.25l3.65625 0l0 2.609375q0 1.59375 -0.28125 2.5q-0.265625 0.921875 -1.03125 1.65625q-0.765625 0.734375 -1.9375 1.140625l-0.71875 -1.5q1.109375 -0.375 1.578125 -1.015625q0.46875 -0.625 0.5 -1.734375l-1.765625 0l0 -3.65625zm26.46817 0.265625l0 3.390625l-12.828125 0q0.21875 -1.921875 1.25 -3.640625q1.046875 -1.734375 4.125 -4.578125q2.46875 -2.3125 3.03125 -3.125q0.75 -1.140625 0.75 -2.25q0 -1.21875 -0.65625 -1.875q-0.65625 -0.65625 -1.8125 -0.65625q-1.140625 0 -1.828125 0.6875q-0.671875 0.6875 -0.78125 2.296875l-3.640625 -0.375q0.328125 -3.015625 2.046875 -4.328125q1.71875 -1.3125 4.296875 -1.3125q2.8125 0 4.421875 1.53125q1.625 1.515625 1.625 3.78125q0 1.28125 -0.46875 2.453125q-0.453125 1.15625 -1.453125 2.4375q-0.671875 0.84375 -2.40625 2.4375q-1.71875 1.578125 -2.1875 2.109375q-0.453125 0.515625 -0.75 1.015625l7.265625 0zm3.1686707 -0.265625l3.65625 0l0 2.609375q0 1.59375 -0.28125 2.5q-0.265625 0.921875 -1.03125 1.65625q-0.765625 0.734375 -1.9375 1.140625l-0.71875 -1.5q1.109375 -0.375 1.578125 -1.015625q0.46875 -0.625 0.5 -1.734375l-1.765625 0l0 -3.65625zm17.24942 -6.640625q-1.421875 -0.59375 -2.0625 -1.640625q-0.640625 -1.046875 -0.640625 -2.296875q0 -2.140625 1.484375 -3.53125q1.5 -1.390625 4.234375 -1.390625q2.734375 0 4.234375 1.390625q1.5 1.390625 1.5 3.53125q0 1.328125 -0.6875 2.359375q-0.6875 1.03125 -1.9375 1.578125q1.578125 0.640625 2.40625 1.875q0.828125 1.21875 0.828125 2.8125q0 2.640625 -1.6875 4.296875q-1.6875 1.65625 -4.484375 1.65625q-2.59375 0 -4.328125 -1.375q-2.046875 -1.609375 -2.046875 -4.421875q0 -1.546875 0.765625 -2.84375q0.765625 -1.296875 2.421875 -2.0zm0.765625 -3.6875q0 1.09375 0.609375 1.71875q0.625 0.609375 1.640625 0.609375q1.046875 0 1.671875 -0.625q0.625 -0.625 0.625 -1.703125q0 -1.03125 -0.625 -1.640625q-0.609375 -0.625 -1.625 -0.625q-1.046875 0 -1.671875 0.625q-0.625 0.625 -0.625 1.640625zm-0.34375 8.171875q0 1.515625 0.765625 2.359375q0.78125 0.84375 1.9375 0.84375q1.140625 0 1.875 -0.8125q0.75 -0.8125 0.75 -2.34375q0 -1.34375 -0.765625 -2.15625q-0.75 -0.8125 -1.90625 -0.8125q-1.34375 0 -2.0 0.921875q-0.65625 0.921875 -0.65625 2.0zm11.965576 2.15625l3.65625 0l0 2.609375q0 1.59375 -0.28125 2.5q-0.265625 0.921875 -1.03125 1.65625q-0.765625 0.734375 -1.9375 1.140625l-0.71875 -1.5q1.109375 -0.375 1.578125 -1.015625q0.46875 -0.625 0.5 -1.734375l-1.765625 0l0 -3.65625zm14.171295 -1.25l3.640625 -0.375q0.15625 1.234375 0.921875 1.953125q0.765625 0.71875 1.765625 0.71875q1.15625 0 1.9375 -0.921875q0.796875 -0.9375 0.796875 -2.8125q0 -1.75 -0.78125 -2.625q-0.78125 -0.890625 -2.046875 -0.890625q-1.578125 0 -2.828125 1.40625l-2.96875 -0.4375l1.875 -9.9375l9.671875 0l0 3.4375l-6.890625 0l-0.578125 3.234375q1.21875 -0.609375 2.5 -0.609375q2.4375 0 4.125 1.765625q1.6875 1.765625 1.6875 4.59375q0 2.359375 -1.359375 4.203125q-1.859375 2.53125 -5.171875 2.53125q-2.640625 0 -4.3125 -1.421875q-1.65625 -1.421875 -1.984375 -3.8125zm15.465546 1.25l3.65625 0l0 2.609375q0 1.59375 -0.28125 2.5q-0.265625 0.921875 -1.03125 1.65625q-0.765625 0.734375 -1.9375 1.140625l-0.71875 -1.5q1.109375 -0.375 1.578125 -1.015625q0.46875 -0.625 0.5 -1.734375l-1.765625 0l0 -3.65625zm13.983795 -1.40625l3.546875 -0.4375q0.171875 1.359375 0.90625 2.078125q0.75 0.71875 1.796875 0.71875q1.125 0 1.90625 -0.859375q0.78125 -0.859375 0.78125 -2.328125q0 -1.375 -0.75 -2.171875q-0.734375 -0.8125 -1.8125 -0.8125q-0.703125 0 -1.671875 0.265625l0.40625 -2.96875q1.484375 0.03125 2.265625 -0.640625q0.78125 -0.6875 0.78125 -1.828125q0 -0.953125 -0.578125 -1.53125q-0.578125 -0.578125 -1.53125 -0.578125q-0.921875 0 -1.59375 0.65625q-0.65625 0.65625 -0.8125 1.90625l-3.359375 -0.578125q0.34375 -1.734375 1.046875 -2.765625q0.71875 -1.03125 1.984375 -1.625q1.265625 -0.59375 2.84375 -0.59375q2.703125 0 4.328125 1.71875q1.34375 1.40625 1.34375 3.171875q0 2.515625 -2.75 4.015625q1.640625 0.34375 2.609375 1.578125q0.984375 1.21875 0.984375 2.9375q0 2.515625 -1.828125 4.296875q-1.828125 1.765625 -4.5625 1.765625q-2.59375 0 -4.296875 -1.484375q-1.703125 -1.5 -1.984375 -3.90625zm15.653076 1.40625l3.65625 0l0 2.609375q0 1.59375 -0.28125 2.5q-0.265625 0.921875 -1.03125 1.65625q-0.765625 0.734375 -1.9375 1.140625l-0.71875 -1.5q1.109375 -0.375 1.578125 -1.015625q0.46875 -0.625 0.5 -1.734375l-1.765625 0l0 -3.65625zm20.296295 -15.5q2.78125 0 4.34375 1.96875q1.859375 2.34375 1.859375 7.78125q0 5.40625 -1.875 7.78125q-1.546875 1.953125 -4.328125 1.953125q-2.78125 0 -4.484375 -2.140625q-1.703125 -2.140625 -1.703125 -7.640625q0 -5.390625 1.875 -7.75q1.546875 -1.953125 4.3125 -1.953125zm0 3.03125q-0.65625 0 -1.1875 0.421875q-0.515625 0.421875 -0.796875 1.515625q-0.375 1.421875 -0.375 4.78125q0 3.359375 0.328125 4.609375q0.34375 1.25 0.859375 1.671875q0.515625 0.421875 1.171875 0.421875q0.671875 0 1.1875 -0.421875q0.515625 -0.421875 0.8125 -1.515625q0.375 -1.40625 0.375 -4.765625q0 -3.359375 -0.34375 -4.609375q-0.34375 -1.265625 -0.859375 -1.6875q-0.5 -0.421875 -1.171875 -0.421875zm9.340546 12.46875l3.65625 0l0 2.609375q0 1.59375 -0.28125 2.5q-0.265625 0.921875 -1.03125 1.65625q-0.765625 0.734375 -1.9375 1.140625l-0.71875 -1.5q1.109375 -0.375 1.578125 -1.015625q0.46875 -0.625 0.5 -1.734375l-1.765625 0l0 -3.65625zm13.983795 -1.40625l3.546875 -0.4375q0.171875 1.359375 0.90625 2.078125q0.75 0.71875 1.796875 0.71875q1.125 0 1.90625 -0.859375q0.78125 -0.859375 0.78125 -2.328125q0 -1.375 -0.75 -2.171875q-0.734375 -0.8125 -1.8125 -0.8125q-0.703125 0 -1.671875 0.265625l0.40625 -2.96875q1.484375 0.03125 2.265625 -0.640625q0.78125 -0.6875 0.78125 -1.828125q0 -0.953125 -0.578125 -1.53125q-0.578125 -0.578125 -1.53125 -0.578125q-0.921875 0 -1.59375 0.65625q-0.65625 0.65625 -0.8125 1.90625l-3.359375 -0.578125q0.34375 -1.734375 1.046875 -2.765625q0.71875 -1.03125 1.984375 -1.625q1.265625 -0.59375 2.84375 -0.59375q2.703125 0 4.328125 1.71875q1.34375 1.40625 1.34375 3.171875q0 2.515625 -2.75 4.015625q1.640625 0.34375 2.609375 1.578125q0.984375 1.21875 0.984375 2.9375q0 2.515625 -1.828125 4.296875q-1.828125 1.765625 -4.5625 1.765625q-2.59375 0 -4.296875 -1.484375q-1.703125 -1.5 -1.984375 -3.90625zm28.199646 -14.015625l0 24.453125l-6.46875 0l0 -2.875l3.0 0l0 -18.734375l-3.0 0l0 -2.84375l6.46875 0z" fill-rule="nonzero"/><path fill="#000000" fill-opacity="0.0" d="m58.09974 260.45013l162.48819 0l0 42.015747l-162.48819 0z" fill-rule="evenodd"/><path fill="#000000" d="m95.82537 287.37012l-3.90625 -9.671875l2.6875 0l1.828125 4.9375l0.53125 1.640625q0.203125 -0.625 0.265625 -0.828125q0.125 -0.40625 0.265625 -0.8125l1.84375 -4.9375l2.625 0l-3.84375 9.671875l-2.296875 0zm9.625717 -6.71875l-2.328125 -0.421875q0.40625 -1.40625 1.359375 -2.078125q0.953125 -0.671875 2.84375 -0.671875q1.703125 0 2.546875 0.40625q0.84375 0.40625 1.171875 1.03125q0.34375 0.625 0.34375 2.28125l-0.015625 3.0q0 1.265625 0.109375 1.875q0.125 0.609375 0.46875 1.296875l-2.53125 0q-0.109375 -0.25 -0.25 -0.75q-0.0625 -0.234375 -0.09375 -0.3125q-0.65625 0.640625 -1.40625 0.96875q-0.734375 0.3125 -1.59375 0.3125q-1.484375 0 -2.34375 -0.8125q-0.859375 -0.8125 -0.859375 -2.046875q0 -0.828125 0.390625 -1.46875q0.390625 -0.640625 1.09375 -0.96875q0.703125 -0.34375 2.03125 -0.609375q1.796875 -0.328125 2.484375 -0.625l0 -0.25q0 -0.75 -0.359375 -1.0625q-0.359375 -0.3125 -1.375 -0.3125q-0.6875 0 -1.078125 0.28125q-0.375 0.265625 -0.609375 0.9375zm3.421875 2.078125q-0.484375 0.15625 -1.5625 0.390625q-1.0625 0.21875 -1.390625 0.4375q-0.5 0.359375 -0.5 0.90625q0 0.53125 0.40625 0.9375q0.40625 0.390625 1.015625 0.390625q0.703125 0 1.328125 -0.46875q0.46875 -0.34375 0.609375 -0.84375q0.09375 -0.328125 0.09375 -1.25l0 -0.5zm5.047592 4.640625l0 -13.359375l2.5625 0l0 13.359375l-2.5625 0zm11.542679 0l0 -1.453125q-0.53125 0.78125 -1.390625 1.234375q-0.859375 0.4375 -1.8125 0.4375q-0.96875 0 -1.75 -0.421875q-0.765625 -0.4375 -1.125 -1.203125q-0.34375 -0.78125 -0.34375 -2.140625l0 -6.125l2.5625 0l0 4.4375q0 2.046875 0.140625 2.515625q0.140625 0.453125 0.515625 0.71875q0.375 0.265625 0.953125 0.265625q0.65625 0 1.171875 -0.359375q0.515625 -0.359375 0.703125 -0.890625q0.203125 -0.53125 0.203125 -2.609375l0 -4.078125l2.546875 0l0 9.671875l-2.375 0zm10.630348 -3.078125l2.546875 0.421875q-0.484375 1.40625 -1.546875 2.140625q-1.0625 0.734375 -2.65625 0.734375q-2.515625 0 -3.734375 -1.65625q-0.953125 -1.3125 -0.953125 -3.328125q0 -2.40625 1.25 -3.765625q1.265625 -1.359375 3.1875 -1.359375q2.15625 0 3.40625 1.421875q1.25 1.421875 1.1875 4.375l-6.40625 0q0.03125 1.140625 0.609375 1.78125q0.59375 0.625 1.484375 0.625q0.59375 0 1.0 -0.328125q0.421875 -0.328125 0.625 -1.0625zm0.15625 -2.59375q-0.03125 -1.109375 -0.578125 -1.6875q-0.546875 -0.578125 -1.328125 -0.578125q-0.84375 0 -1.390625 0.609375q-0.546875 0.609375 -0.53125 1.65625l3.828125 0zm3.7194672 2.90625l2.5625 -0.390625q0.171875 0.75 0.671875 1.140625q0.5 0.390625 1.40625 0.390625q0.984375 0 1.484375 -0.375q0.34375 -0.25 0.34375 -0.671875q0 -0.296875 -0.1875 -0.484375q-0.1875 -0.1875 -0.859375 -0.34375q-3.09375 -0.6875 -3.921875 -1.25q-1.140625 -0.78125 -1.140625 -2.171875q0 -1.265625 0.984375 -2.109375q1.0 -0.859375 3.078125 -0.859375q1.984375 0 2.953125 0.65625q0.96875 0.640625 1.328125 1.90625l-2.40625 0.4375q-0.15625 -0.5625 -0.59375 -0.859375q-0.421875 -0.296875 -1.234375 -0.296875q-1.0 0 -1.4375 0.28125q-0.296875 0.203125 -0.296875 0.515625q0 0.265625 0.25 0.46875q0.34375 0.25 2.390625 0.71875q2.046875 0.453125 2.859375 1.140625q0.796875 0.671875 0.796875 1.890625q0 1.34375 -1.109375 2.296875q-1.109375 0.953125 -3.28125 0.953125q-1.984375 0 -3.140625 -0.796875q-1.140625 -0.8125 -1.5 -2.1875zm11.266342 6.53125l0 -17.125l4.53125 0l0 2.015625l-2.09375 0l0 13.09375l2.09375 0l0 2.015625l-4.53125 0zm12.228302 -3.765625l-2.5625 0l0 -9.640625q-1.40625 1.3125 -3.3125 1.9375l0 -2.328125q1.015625 -0.328125 2.1875 -1.234375q1.171875 -0.921875 1.609375 -2.140625l2.078125 0l0 13.40625zm4.860092 -7.109375l0 -2.5625l2.5625 0l0 2.5625l-2.5625 0zm0 7.109375l0 -2.5625l2.5625 0l0 2.5625l-2.5625 0zm5.431427 -3.5625l0 -2.5625l5.03125 0l0 2.5625l-5.03125 0zm12.509552 3.5625l-2.5625 0l0 -9.640625q-1.40625 1.3125 -3.3125 1.9375l0 -2.328125q1.015625 -0.328125 2.1875 -1.234375q1.171875 -0.921875 1.609375 -2.140625l2.078125 0l0 13.40625zm7.906967 -13.359375l0 17.125l-4.53125 0l0 -2.015625l2.109375 0l0 -13.109375l-2.109375 0l0 -2.0l4.53125 0zm7.302231 5.921875l0 -2.34375l9.328125 0l0 2.34375l-9.328125 0zm0 4.046875l0 -2.359375l9.328125 0l0 2.359375l-9.328125 0z" fill-rule="nonzero"/><path fill="#000000" fill-opacity="0.0" d="m272.1051 267.53293l0 0c0 -3.2210083 2.6111145 -5.8321533 5.832123 -5.8321533l165.97351 0c1.5467834 0 3.0302124 0.61447144 4.1239624 1.7081909c1.0937195 1.09375 1.7081909 2.577179 1.7081909 4.1239624l0 23.32785c0 3.2210083 -2.611145 5.832123 -5.8321533 5.832123l-165.97351 0l0 0c-3.2210083 0 -5.832123 -2.6111145 -5.832123 -5.832123z" fill-rule="evenodd"/><path stroke="#000000" stroke-width="1.0" stroke-linejoin="round" stroke-linecap="butt" d="m272.1051 267.53293l0 0c0 -3.2210083 2.6111145 -5.8321533 5.832123 -5.8321533l165.97351 0c1.5467834 0 3.0302124 0.61447144 4.1239624 1.7081909c1.0937195 1.09375 1.7081909 2.577179 1.7081909 4.1239624l0 23.32785c0 3.2210083 -2.611145 5.832123 -5.8321533 5.832123l-165.97351 0l0 0c-3.2210083 0 -5.832123 -2.6111145 -5.832123 -5.832123z" fill-rule="evenodd"/><path fill="#000000" fill-opacity="0.0" d="m232.8902 60.412075l44.031494 0l0 42.015743l-44.031494 0z" fill-rule="evenodd"/><path fill="#000000" d="m242.74957 83.316444l0.359375 -1.640625l5.015625 0l-0.328125 1.640625l-5.046875 0zm9.556427 -3.328125q-0.734375 -0.40625 -1.109375 -1.046875q-0.375 -0.640625 -0.375 -1.390625q0 -1.203125 0.875 -2.234375q1.15625 -1.390625 3.15625 -1.390625q1.765625 0 2.765625 0.9375q1.015625 0.9375 1.015625 2.3125q0 0.96875 -0.546875 1.765625q-0.546875 0.78125 -1.71875 1.234375q0.8125 0.5 1.15625 1.078125q0.4375 0.734375 0.4375 1.71875q0 1.796875 -1.265625 3.203125q-1.265625 1.390625 -3.390625 1.390625q-1.671875 0 -2.75 -1.03125q-1.0625 -1.046875 -1.0625 -2.59375q0 -1.46875 0.75 -2.515625q0.765625 -1.0625 2.0625 -1.4375zm0.140625 -2.359375q0 0.859375 0.546875 1.390625q0.546875 0.515625 1.515625 0.515625q1.125 0 1.828125 -0.6875q0.71875 -0.6875 0.71875 -1.6875q0 -0.84375 -0.5625 -1.375q-0.546875 -0.546875 -1.515625 -0.546875q-0.71875 0 -1.34375 0.34375q-0.609375 0.328125 -0.90625 0.921875q-0.28125 0.578125 -0.28125 1.125zm-1.296875 6.4375q0 0.5625 0.265625 1.078125q0.28125 0.5 0.828125 0.8125q0.546875 0.296875 1.25 0.296875q1.328125 0 2.15625 -1.265625q0.65625 -0.984375 0.65625 -2.125q0 -0.921875 -0.609375 -1.515625q-0.59375 -0.59375 -1.578125 -0.59375q-1.25 0 -2.109375 0.921875q-0.859375 0.921875 -0.859375 2.390625z" fill-rule="nonzero"/><path fill="#000000" fill-opacity="0.0" d="m262.64377 60.412075l57.322845 0l0 42.015743l-57.322845 0z" fill-rule="evenodd"/><path fill="#000000" d="m272.50314 83.316444l0.359375 -1.640625l5.015625 0l-0.328125 1.640625l-5.046875 0zm8.056427 4.015625q0.21875 -1.34375 0.9375 -3.25q0.84375 -2.28125 2.21875 -4.53125q1.375 -2.25 3.0625 -3.875l-6.65625 0l0.3125 -1.515625l8.53125 0l-0.3125 1.515625q-2.171875 1.90625 -3.796875 4.90625q-1.875 3.46875 -2.578125 6.75l-1.71875 0z" fill-rule="nonzero"/><path fill="#000000" fill-opacity="0.0" d="m292.56186 60.412075l44.251984 0l0 42.015743l-44.251984 0z" fill-rule="evenodd"/><path fill="#000000" d="m302.42123 83.316444l0.359375 -1.640625l5.015625 0l-0.328125 1.640625l-5.046875 0zm9.103302 -3.734375q0.703125 -0.5625 1.390625 -0.84375q0.6875 -0.296875 1.359375 -0.296875q1.515625 0 2.5 1.046875q1.0 1.03125 1.0 2.78125q0 2.28125 -1.46875 3.890625q-1.28125 1.40625 -3.109375 1.40625q-1.65625 0 -2.765625 -1.21875q-1.09375 -1.21875 -1.09375 -3.46875q0 -2.015625 0.703125 -4.171875q0.546875 -1.640625 1.34375 -2.703125q0.8125 -1.078125 1.71875 -1.578125q0.90625 -0.5 2.046875 -0.5q1.375 0 2.234375 0.859375q0.859375 0.84375 0.984375 2.421875l-1.53125 0.15625q-0.125 -1.09375 -0.609375 -1.578125q-0.484375 -0.484375 -1.1875 -0.484375q-0.75 0 -1.5 0.578125q-0.734375 0.578125 -1.28125 1.703125q-0.53125 1.125 -0.734375 2.0zm-0.578125 4.0q0 1.125 0.703125 1.90625q0.703125 0.765625 1.59375 0.765625q0.609375 0 1.296875 -0.46875q0.703125 -0.46875 1.1875 -1.421875q0.484375 -0.96875 0.484375 -1.90625q0 -1.234375 -0.671875 -1.953125q-0.671875 -0.734375 -1.609375 -0.734375q-1.09375 0 -2.046875 1.078125q-0.9375 1.0625 -0.9375 2.734375z" fill-rule="nonzero"/><path fill="#000000" fill-opacity="0.0" d="m322.14737 60.412075l49.95276 0l0 42.015743l-49.95276 0z" fill-rule="evenodd"/><path fill="#000000" d="m332.00674 83.316444l0.359375 -1.640625l5.015625 0l-0.328125 1.640625l-5.046875 0zm6.650177 0.203125l1.6875 -0.171875q-0.03125 0.359375 -0.03125 0.4375q0 0.59375 0.3125 1.203125q0.3125 0.609375 0.828125 0.9375q0.53125 0.328125 1.109375 0.328125q0.765625 0 1.546875 -0.53125q0.796875 -0.53125 1.28125 -1.53125q0.5 -1.015625 0.5 -2.015625q0 -1.125 -0.65625 -1.796875q-0.65625 -0.671875 -1.734375 -0.671875q-0.71875 0 -1.359375 0.34375q-0.640625 0.34375 -1.203125 1.046875l-1.4375 -0.109375l2.015625 -6.828125l6.515625 0l-0.3125 1.515625l-5.078125 0l-1.0 3.390625q0.5625 -0.40625 1.15625 -0.609375q0.609375 -0.203125 1.234375 -0.203125q1.53125 0 2.515625 1.015625q0.984375 1.0 0.984375 2.765625q0 1.53125 -0.6875 2.828125q-0.671875 1.296875 -1.859375 2.0q-1.171875 0.703125 -2.53125 0.703125q-1.15625 0 -2.046875 -0.515625q-0.875 -0.53125 -1.3125 -1.4375q-0.4375 -0.90625 -0.4375 -1.828125q0 -0.09375 0 -0.265625z" fill-rule="nonzero"/><path fill="#000000" fill-opacity="0.0" d="m352.23404 60.412075l44.031494 0l0 42.015743l-44.031494 0z" fill-rule="evenodd"/><path fill="#000000" d="m362.0934 83.316444l0.359375 -1.640625l5.015625 0l-0.328125 1.640625l-5.046875 0zm10.931427 4.015625l0.71875 -3.40625l-5.453125 0l0.34375 -1.625l7.484375 -8.328125l1.34375 0l-1.765625 8.5l1.875 0l-0.3125 1.453125l-1.875 0l-0.71875 3.40625l-1.640625 0zm1.015625 -4.859375l1.171875 -5.578125l-4.984375 5.578125l3.8125 0z" fill-rule="nonzero"/><path fill="#000000" fill-opacity="0.0" d="m381.65146 60.412075l44.031494 0l0 42.015743l-44.031494 0z" fill-rule="evenodd"/><path fill="#000000" d="m391.51083 83.316444l0.359375 -1.640625l5.015625 0l-0.328125 1.640625l-5.046875 0zm6.368927 0.515625l1.609375 -0.203125q0.1875 1.40625 0.796875 2.015625q0.625 0.609375 1.640625 0.609375q1.21875 0 2.109375 -0.875q0.890625 -0.875 0.890625 -2.015625q0 -0.984375 -0.671875 -1.625q-0.65625 -0.640625 -1.78125 -0.640625q-0.125 0 -0.53125 0.046875l0.28125 -1.375q0.25 0.03125 0.46875 0.03125q1.40625 0 2.15625 -0.6875q0.765625 -0.6875 0.765625 -1.6875q0 -0.921875 -0.625 -1.546875q-0.625 -0.640625 -1.515625 -0.640625q-0.890625 0 -1.59375 0.65625q-0.703125 0.640625 -0.90625 1.8125l-1.625 -0.328125q0.40625 -1.65625 1.546875 -2.546875q1.140625 -0.90625 2.6875 -0.90625q1.640625 0 2.65625 1.0q1.015625 0.984375 1.015625 2.4375q0 1.046875 -0.546875 1.84375q-0.546875 0.78125 -1.65625 1.296875q0.78125 0.46875 1.171875 1.125q0.390625 0.65625 0.390625 1.5q0 1.796875 -1.34375 3.125q-1.34375 1.3125 -3.21875 1.3125q-1.8125 0 -2.9375 -1.015625q-1.109375 -1.015625 -1.234375 -2.71875z" fill-rule="nonzero"/><path fill="#000000" fill-opacity="0.0" d="m411.40463 60.412075l44.031494 0l0 42.015743l-44.031494 0z" fill-rule="evenodd"/><path fill="#000000" d="m421.264 83.316444l0.359375 -1.640625l5.015625 0l-0.328125 1.640625l-5.046875 0zm6.447052 4.015625q0.25 -1.1875 0.703125 -2.0q0.453125 -0.8125 1.203125 -1.53125q0.75 -0.71875 2.875 -2.421875q1.296875 -1.03125 1.765625 -1.53125q0.6875 -0.703125 1.0 -1.390625q0.203125 -0.46875 0.203125 -1.015625q0 -0.90625 -0.65625 -1.546875q-0.640625 -0.65625 -1.59375 -0.65625q-0.9375 0 -1.640625 0.65625q-0.703125 0.65625 -1.0 2.09375l-1.609375 -0.234375q0.234375 -1.78125 1.375 -2.796875q1.140625 -1.03125 2.84375 -1.03125q1.140625 0 2.0625 0.46875q0.9375 0.46875 1.390625 1.328125q0.46875 0.859375 0.46875 1.765625q0 1.328125 -0.953125 2.5625q-0.578125 0.765625 -3.421875 3.015625q-1.21875 0.96875 -1.8125 1.59375q-0.59375 0.609375 -0.90625 1.15625l5.984375 0l-0.3125 1.515625l-7.96875 0z" fill-rule="nonzero"/><path fill="#000000" fill-opacity="0.0" d="m440.2598 60.412075l37.35431 0l0 42.015743l-37.35431 0z" fill-rule="evenodd"/><path fill="#000000" d="m450.11917 83.316444l0.359375 -1.640625l5.015625 0l-0.328125 1.640625l-5.046875 0zm9.837677 4.015625l2.125 -10.078125q-1.375 1.0625 -3.84375 1.71875l0.296875 -1.5q1.234375 -0.484375 2.4375 -1.28125q1.203125 -0.796875 1.796875 -1.390625q0.359375 -0.359375 0.6875 -0.875l0.96875 0l-2.796875 13.40625l-1.671875 0z" fill-rule="nonzero"/><path fill="#000000" fill-opacity="0.0" d="m220.59317 302.20996l288.8189 0l0 51.716553l-288.8189 0z" fill-rule="evenodd"/><path fill="#000000" d="m231.49942 342.18497l0 -24.453125l6.46875 0l0 2.875l-3.0 0l0 18.703125l3.0 0l0 2.875l-6.46875 0zm15.50145 -20.796875l0 -3.40625l12.51564 0l0 2.65625q-1.546875 1.53125 -3.15625 4.390625q-1.5937653 2.84375 -2.4375153 6.046875q-0.84375 3.203125 -0.828125 5.734375l-3.515625 0q0.078125 -3.953125 1.625 -8.0625q1.546875 -4.125 4.125 -7.359375l-8.328125 0zm15.528061 11.765625l3.65625 0l0 2.609375q0 1.59375 -0.28125 2.5q-0.265625 0.921875 -1.03125 1.65625q-0.765625 0.734375 -1.9375 1.140625l-0.71875 -1.5q1.109375 -0.375 1.578125 -1.015625q0.46875 -0.625 0.5 -1.734375l-1.765625 0l0 -3.65625zm14.171295 -1.25l3.640625 -0.375q0.15625 1.234375 0.921875 1.953125q0.765625 0.71875 1.765625 0.71875q1.15625 0 1.9375 -0.921875q0.796875 -0.9375 0.796875 -2.8125q0 -1.75 -0.78125 -2.625q-0.78125 -0.890625 -2.046875 -0.890625q-1.578125 0 -2.828125 1.40625l-2.96875 -0.4375l1.875 -9.9375l9.671875 0l0 3.4375l-6.890625 0l-0.578125 3.234375q1.21875 -0.609375 2.5 -0.609375q2.4375 0 4.125 1.765625q1.6875 1.765625 1.6875 4.59375q0 2.359375 -1.359375 4.203125q-1.859375 2.53125 -5.171875 2.53125q-2.640625 0 -4.3125 -1.421875q-1.65625 -1.421875 -1.984375 -3.8125zm15.465576 1.25l3.65625 0l0 2.609375q0 1.59375 -0.28125 2.5q-0.265625 0.921875 -1.03125 1.65625q-0.765625 0.734375 -1.9375 1.140625l-0.71875 -1.5q1.109375 -0.375 1.578125 -1.015625q0.46875 -0.625 0.5 -1.734375l-1.765625 0l0 -3.65625zm26.46817 0.265625l0 3.390625l-12.828125 0q0.21875 -1.921875 1.25 -3.640625q1.046875 -1.734375 4.125 -4.578125q2.46875 -2.3125 3.03125 -3.125q0.75 -1.140625 0.75 -2.25q0 -1.21875 -0.65625 -1.875q-0.65625 -0.65625 -1.8125 -0.65625q-1.140625 0 -1.828125 0.6875q-0.671875 0.6875 -0.78125 2.296875l-3.640625 -0.375q0.328125 -3.015625 2.046875 -4.328125q1.71875 -1.3125 4.296875 -1.3125q2.8125 0 4.421875 1.53125q1.625 1.515625 1.625 3.78125q0 1.28125 -0.46875 2.453125q-0.453125 1.15625 -1.453125 2.4375q-0.671875 0.84375 -2.40625 2.4375q-1.71875 1.578125 -2.1875 2.109375q-0.453125 0.515625 -0.75 1.015625l7.265625 0zm3.1686707 -0.265625l3.65625 0l0 2.609375q0 1.59375 -0.28125 2.5q-0.265625 0.921875 -1.03125 1.65625q-0.765625 0.734375 -1.9375 1.140625l-0.71875 -1.5q1.109375 -0.375 1.578125 -1.015625q0.46875 -0.625 0.5 -1.734375l-1.765625 0l0 -3.65625zm17.24942 -6.640625q-1.421875 -0.59375 -2.0625 -1.640625q-0.640625 -1.046875 -0.640625 -2.296875q0 -2.140625 1.484375 -3.53125q1.5 -1.390625 4.234375 -1.390625q2.734375 0 4.234375 1.390625q1.5 1.390625 1.5 3.53125q0 1.328125 -0.6875 2.359375q-0.6875 1.03125 -1.9375 1.578125q1.578125 0.640625 2.40625 1.875q0.828125 1.21875 0.828125 2.8125q0 2.640625 -1.6875 4.296875q-1.6875 1.65625 -4.484375 1.65625q-2.59375 0 -4.328125 -1.375q-2.046875 -1.609375 -2.046875 -4.421875q0 -1.546875 0.765625 -2.84375q0.765625 -1.296875 2.421875 -2.0zm0.765625 -3.6875q0 1.09375 0.609375 1.71875q0.625 0.609375 1.640625 0.609375q1.046875 0 1.671875 -0.625q0.625 -0.625 0.625 -1.703125q0 -1.03125 -0.625 -1.640625q-0.609375 -0.625 -1.625 -0.625q-1.046875 0 -1.671875 0.625q-0.625 0.625 -0.625 1.640625zm-0.34375 8.171875q0 1.515625 0.765625 2.359375q0.78125 0.84375 1.9375 0.84375q1.140625 0 1.875 -0.8125q0.75 -0.8125 0.75 -2.34375q0 -1.34375 -0.765625 -2.15625q-0.75 -0.8125 -1.90625 -0.8125q-1.34375 0 -2.0 0.921875q-0.65625 0.921875 -0.65625 2.0zm11.965576 2.15625l3.65625 0l0 2.609375q0 1.59375 -0.28125 2.5q-0.265625 0.921875 -1.03125 1.65625q-0.765625 0.734375 -1.9375 1.140625l-0.71875 -1.5q1.109375 -0.375 1.578125 -1.015625q0.46875 -0.625 0.5 -1.734375l-1.765625 0l0 -3.65625zm14.171295 -1.25l3.640625 -0.375q0.15625 1.234375 0.921875 1.953125q0.765625 0.71875 1.765625 0.71875q1.15625 0 1.9375 -0.921875q0.796875 -0.9375 0.796875 -2.8125q0 -1.75 -0.78125 -2.625q-0.78125 -0.890625 -2.046875 -0.890625q-1.578125 0 -2.828125 1.40625l-2.96875 -0.4375l1.875 -9.9375l9.671875 0l0 3.4375l-6.890625 0l-0.578125 3.234375q1.21875 -0.609375 2.5 -0.609375q2.4375 0 4.125 1.765625q1.6875 1.765625 1.6875 4.59375q0 2.359375 -1.359375 4.203125q-1.859375 2.53125 -5.171875 2.53125q-2.640625 0 -4.3125 -1.421875q-1.65625 -1.421875 -1.984375 -3.8125zm15.465546 1.25l3.65625 0l0 2.609375q0 1.59375 -0.28125 2.5q-0.265625 0.921875 -1.03125 1.65625q-0.765625 0.734375 -1.9375 1.140625l-0.71875 -1.5q1.109375 -0.375 1.578125 -1.015625q0.46875 -0.625 0.5 -1.734375l-1.765625 0l0 -3.65625zm13.983795 -1.40625l3.546875 -0.4375q0.171875 1.359375 0.90625 2.078125q0.75 0.71875 1.796875 0.71875q1.125 0 1.90625 -0.859375q0.78125 -0.859375 0.78125 -2.328125q0 -1.375 -0.75 -2.171875q-0.734375 -0.8125 -1.8125 -0.8125q-0.703125 0 -1.671875 0.265625l0.40625 -2.96875q1.484375 0.03125 2.265625 -0.640625q0.78125 -0.6875 0.78125 -1.828125q0 -0.953125 -0.578125 -1.53125q-0.578125 -0.578125 -1.53125 -0.578125q-0.921875 0 -1.59375 0.65625q-0.65625 0.65625 -0.8125 1.90625l-3.359375 -0.578125q0.34375 -1.734375 1.046875 -2.765625q0.71875 -1.03125 1.984375 -1.625q1.265625 -0.59375 2.84375 -0.59375q2.703125 0 4.328125 1.71875q1.34375 1.40625 1.34375 3.171875q0 2.515625 -2.75 4.015625q1.640625 0.34375 2.609375 1.578125q0.984375 1.21875 0.984375 2.9375q0 2.515625 -1.828125 4.296875q-1.828125 1.765625 -4.5625 1.765625q-2.59375 0 -4.296875 -1.484375q-1.703125 -1.5 -1.984375 -3.90625zm15.653076 1.40625l3.65625 0l0 2.609375q0 1.59375 -0.28125 2.5q-0.265625 0.921875 -1.03125 1.65625q-0.765625 0.734375 -1.9375 1.140625l-0.71875 -1.5q1.109375 -0.375 1.578125 -1.015625q0.46875 -0.625 0.5 -1.734375l-1.765625 0l0 -3.65625zm20.296295 -15.5q2.78125 0 4.34375 1.96875q1.859375 2.34375 1.859375 7.78125q0 5.40625 -1.875 7.78125q-1.546875 1.953125 -4.328125 1.953125q-2.78125 0 -4.484375 -2.140625q-1.703125 -2.140625 -1.703125 -7.640625q0 -5.390625 1.875 -7.75q1.546875 -1.953125 4.3125 -1.953125zm0 3.03125q-0.65625 0 -1.1875 0.421875q-0.515625 0.421875 -0.796875 1.515625q-0.375 1.421875 -0.375 4.78125q0 3.359375 0.328125 4.609375q0.34375 1.25 0.859375 1.671875q0.515625 0.421875 1.171875 0.421875q0.671875 0 1.1875 -0.421875q0.515625 -0.421875 0.8125 -1.515625q0.375 -1.40625 0.375 -4.765625q0 -3.359375 -0.34375 -4.609375q-0.34375 -1.265625 -0.859375 -1.6875q-0.5 -0.421875 -1.171875 -0.421875zm9.340546 12.46875l3.65625 0l0 2.609375q0 1.59375 -0.28125 2.5q-0.265625 0.921875 -1.03125 1.65625q-0.765625 0.734375 -1.9375 1.140625l-0.71875 -1.5q1.109375 -0.375 1.578125 -1.015625q0.46875 -0.625 0.5 -1.734375l-1.765625 0l0 -3.65625zm13.983795 -1.40625l3.546875 -0.4375q0.171875 1.359375 0.90625 2.078125q0.75 0.71875 1.796875 0.71875q1.125 0 1.90625 -0.859375q0.78125 -0.859375 0.78125 -2.328125q0 -1.375 -0.75 -2.171875q-0.734375 -0.8125 -1.8125 -0.8125q-0.703125 0 -1.671875 0.265625l0.40625 -2.96875q1.484375 0.03125 2.265625 -0.640625q0.78125 -0.6875 0.78125 -1.828125q0 -0.953125 -0.578125 -1.53125q-0.578125 -0.578125 -1.53125 -0.578125q-0.921875 0 -1.59375 0.65625q-0.65625 0.65625 -0.8125 1.90625l-3.359375 -0.578125q0.34375 -1.734375 1.046875 -2.765625q0.71875 -1.03125 1.984375 -1.625q1.265625 -0.59375 2.84375 -0.59375q2.703125 0 4.328125 1.71875q1.34375 1.40625 1.34375 3.171875q0 2.515625 -2.75 4.015625q1.640625 0.34375 2.609375 1.578125q0.984375 1.21875 0.984375 2.9375q0 2.515625 -1.828125 4.296875q-1.828125 1.765625 -4.5625 1.765625q-2.59375 0 -4.296875 -1.484375q-1.703125 -1.5 -1.984375 -3.90625zm28.199646 -14.015625l0 24.453125l-6.46875 0l0 -2.875l3.0 0l0 -18.734375l-3.0 0l0 -2.84375l6.46875 0z" fill-rule="nonzero"/><path fill="#000000" fill-opacity="0.0" d="m86.09974 309.2047l134.48819 0l0 42.015747l-134.48819 0z" fill-rule="evenodd"/><path fill="#000000" d="m112.413765 336.12473l-3.90625 -9.671875l2.6875 0l1.828125 4.9375l0.53125 1.640625q0.203125 -0.625 0.265625 -0.828125q0.125 -0.40625 0.265625 -0.8125l1.84375 -4.9375l2.625 0l-3.84375 9.671875l-2.296875 0zm9.625717 -6.71875l-2.328125 -0.421875q0.40625 -1.40625 1.359375 -2.078125q0.953125 -0.671875 2.84375 -0.671875q1.703125 0 2.546875 0.40625q0.84375 0.40625 1.171875 1.03125q0.34375 0.625 0.34375 2.28125l-0.015625 3.0q0 1.265625 0.10936737 1.875q0.125 0.609375 0.46875 1.296875l-2.5312424 0q-0.109375 -0.25 -0.25 -0.75q-0.0625 -0.234375 -0.09375 -0.3125q-0.65625 0.640625 -1.40625 0.96875q-0.734375 0.3125 -1.59375 0.3125q-1.484375 0 -2.34375 -0.8125q-0.859375 -0.8125 -0.859375 -2.046875q0 -0.828125 0.390625 -1.46875q0.390625 -0.640625 1.09375 -0.96875q0.703125 -0.34375 2.03125 -0.609375q1.796875 -0.328125 2.484375 -0.625l0 -0.25q0 -0.75 -0.359375 -1.0625q-0.359375 -0.3125 -1.375 -0.3125q-0.6875 0 -1.078125 0.28125q-0.375 0.265625 -0.609375 0.9375zm3.421875 2.078125q-0.484375 0.15625 -1.5625 0.390625q-1.0625 0.21875 -1.390625 0.4375q-0.5 0.359375 -0.5 0.90625q0 0.53125 0.40625 0.9375q0.40625 0.390625 1.015625 0.390625q0.703125 0 1.328125 -0.46875q0.46875 -0.34375 0.609375 -0.84375q0.09375 -0.328125 0.09375 -1.25l0 -0.5zm5.0475845 4.640625l0 -13.359375l2.5625 0l0 13.359375l-2.5625 0zm11.542679 0l0 -1.453125q-0.53125 0.78125 -1.390625 1.234375q-0.859375 0.4375 -1.8125 0.4375q-0.96875 0 -1.75 -0.421875q-0.765625 -0.4375 -1.125 -1.203125q-0.34375 -0.78125 -0.34375 -2.140625l0 -6.125l2.5625 0l0 4.4375q0 2.046875 0.140625 2.515625q0.140625 0.453125 0.515625 0.71875q0.375 0.265625 0.953125 0.265625q0.65625 0 1.171875 -0.359375q0.515625 -0.359375 0.703125 -0.890625q0.203125 -0.53125 0.203125 -2.609375l0 -4.078125l2.546875 0l0 9.671875l-2.375 0zm10.630356 -3.078125l2.546875 0.421875q-0.484375 1.40625 -1.546875 2.140625q-1.0625 0.734375 -2.65625 0.734375q-2.515625 0 -3.734375 -1.65625q-0.953125 -1.3125 -0.953125 -3.328125q0 -2.40625 1.25 -3.765625q1.265625 -1.359375 3.1875 -1.359375q2.15625 0 3.40625 1.421875q1.25 1.421875 1.1875 4.375l-6.40625 0q0.03125 1.140625 0.609375 1.78125q0.59375 0.625 1.484375 0.625q0.59375 0 1.0 -0.328125q0.421875 -0.328125 0.625 -1.0625zm0.15625 -2.59375q-0.03125 -1.109375 -0.578125 -1.6875q-0.546875 -0.578125 -1.328125 -0.578125q-0.84375 0 -1.390625 0.609375q-0.546875 0.609375 -0.53125 1.65625l3.828125 0zm3.7194672 2.90625l2.5625 -0.390625q0.171875 0.75 0.671875 1.140625q0.5 0.390625 1.40625 0.390625q0.984375 0 1.484375 -0.375q0.34375 -0.25 0.34375 -0.671875q0 -0.296875 -0.1875 -0.484375q-0.1875 -0.1875 -0.859375 -0.34375q-3.09375 -0.6875 -3.921875 -1.25q-1.140625 -0.78125 -1.140625 -2.171875q0 -1.265625 0.984375 -2.109375q1.0 -0.859375 3.078125 -0.859375q1.984375 0 2.953125 0.65625q0.96875 0.640625 1.328125 1.90625l-2.40625 0.4375q-0.15625 -0.5625 -0.59375 -0.859375q-0.421875 -0.296875 -1.234375 -0.296875q-1.0 0 -1.4375 0.28125q-0.296875 0.203125 -0.296875 0.515625q0 0.265625 0.25 0.46875q0.34375 0.25 2.390625 0.71875q2.046875 0.453125 2.859375 1.140625q0.796875 0.671875 0.796875 1.890625q0 1.34375 -1.109375 2.296875q-1.109375 0.953125 -3.28125 0.953125q-1.984375 0 -3.140625 -0.796875q-1.140625 -0.8125 -1.5 -2.1875zm11.266342 6.53125l0 -17.125l4.53125 0l0 2.015625l-2.09375 0l0 13.09375l2.09375 0l0 2.015625l-4.53125 0zm5.587677 -7.3125l2.46875 -0.296875q0.125 0.953125 0.640625 1.453125q0.53125 0.5 1.265625 0.5q0.78125 0 1.328125 -0.59375q0.546875 -0.609375 0.546875 -1.640625q0 -0.953125 -0.53125 -1.515625q-0.515625 -0.578125 -1.25 -0.578125q-0.5 0 -1.1875 0.203125l0.28125 -2.09375q1.046875 0.03125 1.59375 -0.4375q0.546875 -0.484375 0.546875 -1.28125q0 -0.671875 -0.40625 -1.078125q-0.390625 -0.40625 -1.0625 -0.40625q-0.65625 0 -1.125 0.46875q-0.453125 0.453125 -0.5625 1.328125l-2.359375 -0.40625q0.25 -1.203125 0.734375 -1.921875q0.5 -0.734375 1.390625 -1.140625q0.890625 -0.421875 2.0 -0.421875q1.875 0 3.015625 1.203125q0.9375 0.984375 0.9375 2.21875q0 1.765625 -1.921875 2.8125q1.15625 0.234375 1.84375 1.09375q0.6875 0.859375 0.6875 2.0625q0 1.765625 -1.296875 3.015625q-1.28125 1.234375 -3.1875 1.234375q-1.8125 0 -3.015625 -1.046875q-1.1875 -1.046875 -1.375 -2.734375zm11.500717 -3.5625l0 -2.5625l2.5625 0l0 2.5625l-2.5625 0zm0 7.109375l0 -2.5625l2.5625 0l0 2.5625l-2.5625 0zm9.259552 -13.359375l0 17.125l-4.53125 0l0 -2.015625l2.109375 0l0 -13.109375l-2.109375 0l0 -2.0l4.53125 0zm7.302231 5.921875l0 -2.34375l9.328125 0l0 2.34375l-9.328125 0zm0 4.046875l0 -2.359375l9.328125 0l0 2.359375l-9.328125 0z" fill-rule="nonzero"/><path fill="#000000" fill-opacity="0.0" d="m330.90814 316.54343l0 0c0 -3.2210083 2.611145 -5.8321533 5.832123 -5.8321533l132.52472 0c1.5467834 0 3.030182 0.61447144 4.123932 1.7082214c1.09375 1.0937195 1.7081909 2.5771484 1.7081909 4.123932l0 23.32785c0 3.2210083 -2.611145 5.832123 -5.832123 5.832123l-132.52472 0c-3.2209778 0 -5.832123 -2.6111145 -5.832123 -5.832123z" fill-rule="evenodd"/><path stroke="#000000" stroke-width="1.0" stroke-linejoin="round" stroke-linecap="butt" d="m330.90814 316.54343l0 0c0 -3.2210083 2.611145 -5.8321533 5.832123 -5.8321533l132.52472 0c1.5467834 0 3.030182 0.61447144 4.123932 1.7082214c1.09375 1.0937195 1.7081909 2.5771484 1.7081909 4.123932l0 23.32785c0 3.2210083 -2.611145 5.832123 -5.832123 5.832123l-132.52472 0c-3.2209778 0 -5.832123 -2.6111145 -5.832123 -5.832123z" fill-rule="evenodd"/><path fill="#000000" fill-opacity="0.0" d="m220.59317 356.40552l288.8189 0l0 51.716522l-288.8189 0z" fill-rule="evenodd"/><path fill="#000000" d="m231.49942 396.38052l0 -24.453125l6.46875 0l0 2.875l-3.0 0l0 18.703125l3.0 0l0 2.875l-6.46875 0zm15.50145 -20.796875l0 -3.40625l12.51564 0l0 2.65625q-1.546875 1.53125 -3.15625 4.390625q-1.5937653 2.84375 -2.4375153 6.046875q-0.84375 3.203125 -0.828125 5.734375l-3.515625 0q0.078125 -3.953125 1.625 -8.0625q1.546875 -4.125 4.125 -7.359375l-8.328125 0zm15.528061 11.765625l3.65625 0l0 2.609375q0 1.59375 -0.28125 2.5q-0.265625 0.921875 -1.03125 1.65625q-0.765625 0.734375 -1.9375 1.140625l-0.71875 -1.5q1.109375 -0.375 1.578125 -1.015625q0.46875 -0.625 0.5 -1.734375l-1.765625 0l0 -3.65625zm14.171295 -1.25l3.640625 -0.375q0.15625 1.234375 0.921875 1.953125q0.765625 0.71875 1.765625 0.71875q1.15625 0 1.9375 -0.921875q0.796875 -0.9375 0.796875 -2.8125q0 -1.75 -0.78125 -2.625q-0.78125 -0.890625 -2.046875 -0.890625q-1.578125 0 -2.828125 1.40625l-2.96875 -0.4375l1.875 -9.9375l9.671875 0l0 3.4375l-6.890625 0l-0.578125 3.234375q1.21875 -0.609375 2.5 -0.609375q2.4375 0 4.125 1.765625q1.6875 1.765625 1.6875 4.59375q0 2.359375 -1.359375 4.203125q-1.859375 2.53125 -5.171875 2.53125q-2.640625 0 -4.3125 -1.421875q-1.65625 -1.421875 -1.984375 -3.8125zm15.465576 1.25l3.65625 0l0 2.609375q0 1.59375 -0.28125 2.5q-0.265625 0.921875 -1.03125 1.65625q-0.765625 0.734375 -1.9375 1.140625l-0.71875 -1.5q1.109375 -0.375 1.578125 -1.015625q0.46875 -0.625 0.5 -1.734375l-1.765625 0l0 -3.65625zm26.46817 0.265625l0 3.390625l-12.828125 0q0.21875 -1.921875 1.25 -3.640625q1.046875 -1.734375 4.125 -4.578125q2.46875 -2.3125 3.03125 -3.125q0.75 -1.140625 0.75 -2.25q0 -1.21875 -0.65625 -1.875q-0.65625 -0.65625 -1.8125 -0.65625q-1.140625 0 -1.828125 0.6875q-0.671875 0.6875 -0.78125 2.296875l-3.640625 -0.375q0.328125 -3.015625 2.046875 -4.328125q1.71875 -1.3125 4.296875 -1.3125q2.8125 0 4.421875 1.53125q1.625 1.515625 1.625 3.78125q0 1.28125 -0.46875 2.453125q-0.453125 1.15625 -1.453125 2.4375q-0.671875 0.84375 -2.40625 2.4375q-1.71875 1.578125 -2.1875 2.109375q-0.453125 0.515625 -0.75 1.015625l7.265625 0zm3.1686707 -0.265625l3.65625 0l0 2.609375q0 1.59375 -0.28125 2.5q-0.265625 0.921875 -1.03125 1.65625q-0.765625 0.734375 -1.9375 1.140625l-0.71875 -1.5q1.109375 -0.375 1.578125 -1.015625q0.46875 -0.625 0.5 -1.734375l-1.765625 0l0 -3.65625zm17.24942 -6.640625q-1.421875 -0.59375 -2.0625 -1.640625q-0.640625 -1.046875 -0.640625 -2.296875q0 -2.140625 1.484375 -3.53125q1.5 -1.390625 4.234375 -1.390625q2.734375 0 4.234375 1.390625q1.5 1.390625 1.5 3.53125q0 1.328125 -0.6875 2.359375q-0.6875 1.03125 -1.9375 1.578125q1.578125 0.640625 2.40625 1.875q0.828125 1.21875 0.828125 2.8125q0 2.640625 -1.6875 4.296875q-1.6875 1.65625 -4.484375 1.65625q-2.59375 0 -4.328125 -1.375q-2.046875 -1.609375 -2.046875 -4.421875q0 -1.546875 0.765625 -2.84375q0.765625 -1.296875 2.421875 -2.0zm0.765625 -3.6875q0 1.09375 0.609375 1.71875q0.625 0.609375 1.640625 0.609375q1.046875 0 1.671875 -0.625q0.625 -0.625 0.625 -1.703125q0 -1.03125 -0.625 -1.640625q-0.609375 -0.625 -1.625 -0.625q-1.046875 0 -1.671875 0.625q-0.625 0.625 -0.625 1.640625zm-0.34375 8.171875q0 1.515625 0.765625 2.359375q0.78125 0.84375 1.9375 0.84375q1.140625 0 1.875 -0.8125q0.75 -0.8125 0.75 -2.34375q0 -1.34375 -0.765625 -2.15625q-0.75 -0.8125 -1.90625 -0.8125q-1.34375 0 -2.0 0.921875q-0.65625 0.921875 -0.65625 2.0zm11.965576 2.15625l3.65625 0l0 2.609375q0 1.59375 -0.28125 2.5q-0.265625 0.921875 -1.03125 1.65625q-0.765625 0.734375 -1.9375 1.140625l-0.71875 -1.5q1.109375 -0.375 1.578125 -1.015625q0.46875 -0.625 0.5 -1.734375l-1.765625 0l0 -3.65625zm14.171295 -1.25l3.640625 -0.375q0.15625 1.234375 0.921875 1.953125q0.765625 0.71875 1.765625 0.71875q1.15625 0 1.9375 -0.921875q0.796875 -0.9375 0.796875 -2.8125q0 -1.75 -0.78125 -2.625q-0.78125 -0.890625 -2.046875 -0.890625q-1.578125 0 -2.828125 1.40625l-2.96875 -0.4375l1.875 -9.9375l9.671875 0l0 3.4375l-6.890625 0l-0.578125 3.234375q1.21875 -0.609375 2.5 -0.609375q2.4375 0 4.125 1.765625q1.6875 1.765625 1.6875 4.59375q0 2.359375 -1.359375 4.203125q-1.859375 2.53125 -5.171875 2.53125q-2.640625 0 -4.3125 -1.421875q-1.65625 -1.421875 -1.984375 -3.8125zm15.465546 1.25l3.65625 0l0 2.609375q0 1.59375 -0.28125 2.5q-0.265625 0.921875 -1.03125 1.65625q-0.765625 0.734375 -1.9375 1.140625l-0.71875 -1.5q1.109375 -0.375 1.578125 -1.015625q0.46875 -0.625 0.5 -1.734375l-1.765625 0l0 -3.65625zm13.983795 -1.40625l3.546875 -0.4375q0.171875 1.359375 0.90625 2.078125q0.75 0.71875 1.796875 0.71875q1.125 0 1.90625 -0.859375q0.78125 -0.859375 0.78125 -2.328125q0 -1.375 -0.75 -2.171875q-0.734375 -0.8125 -1.8125 -0.8125q-0.703125 0 -1.671875 0.265625l0.40625 -2.96875q1.484375 0.03125 2.265625 -0.640625q0.78125 -0.6875 0.78125 -1.828125q0 -0.953125 -0.578125 -1.53125q-0.578125 -0.578125 -1.53125 -0.578125q-0.921875 0 -1.59375 0.65625q-0.65625 0.65625 -0.8125 1.90625l-3.359375 -0.578125q0.34375 -1.734375 1.046875 -2.765625q0.71875 -1.03125 1.984375 -1.625q1.265625 -0.59375 2.84375 -0.59375q2.703125 0 4.328125 1.71875q1.34375 1.40625 1.34375 3.171875q0 2.515625 -2.75 4.015625q1.640625 0.34375 2.609375 1.578125q0.984375 1.21875 0.984375 2.9375q0 2.515625 -1.828125 4.296875q-1.828125 1.765625 -4.5625 1.765625q-2.59375 0 -4.296875 -1.484375q-1.703125 -1.5 -1.984375 -3.90625zm15.653076 1.40625l3.65625 0l0 2.609375q0 1.59375 -0.28125 2.5q-0.265625 0.921875 -1.03125 1.65625q-0.765625 0.734375 -1.9375 1.140625l-0.71875 -1.5q1.109375 -0.375 1.578125 -1.015625q0.46875 -0.625 0.5 -1.734375l-1.765625 0l0 -3.65625zm20.296295 -15.5q2.78125 0 4.34375 1.96875q1.859375 2.34375 1.859375 7.78125q0 5.40625 -1.875 7.78125q-1.546875 1.953125 -4.328125 1.953125q-2.78125 0 -4.484375 -2.140625q-1.703125 -2.140625 -1.703125 -7.640625q0 -5.390625 1.875 -7.75q1.546875 -1.953125 4.3125 -1.953125zm0 3.03125q-0.65625 0 -1.1875 0.421875q-0.515625 0.421875 -0.796875 1.515625q-0.375 1.421875 -0.375 4.78125q0 3.359375 0.328125 4.609375q0.34375 1.25 0.859375 1.671875q0.515625 0.421875 1.171875 0.421875q0.671875 0 1.1875 -0.421875q0.515625 -0.421875 0.8125 -1.515625q0.375 -1.40625 0.375 -4.765625q0 -3.359375 -0.34375 -4.609375q-0.34375 -1.265625 -0.859375 -1.6875q-0.5 -0.421875 -1.171875 -0.421875zm9.340546 12.46875l3.65625 0l0 2.609375q0 1.59375 -0.28125 2.5q-0.265625 0.921875 -1.03125 1.65625q-0.765625 0.734375 -1.9375 1.140625l-0.71875 -1.5q1.109375 -0.375 1.578125 -1.015625q0.46875 -0.625 0.5 -1.734375l-1.765625 0l0 -3.65625zm13.983795 -1.40625l3.546875 -0.4375q0.171875 1.359375 0.90625 2.078125q0.75 0.71875 1.796875 0.71875q1.125 0 1.90625 -0.859375q0.78125 -0.859375 0.78125 -2.328125q0 -1.375 -0.75 -2.171875q-0.734375 -0.8125 -1.8125 -0.8125q-0.703125 0 -1.671875 0.265625l0.40625 -2.96875q1.484375 0.03125 2.265625 -0.640625q0.78125 -0.6875 0.78125 -1.828125q0 -0.953125 -0.578125 -1.53125q-0.578125 -0.578125 -1.53125 -0.578125q-0.921875 0 -1.59375 0.65625q-0.65625 0.65625 -0.8125 1.90625l-3.359375 -0.578125q0.34375 -1.734375 1.046875 -2.765625q0.71875 -1.03125 1.984375 -1.625q1.265625 -0.59375 2.84375 -0.59375q2.703125 0 4.328125 1.71875q1.34375 1.40625 1.34375 3.171875q0 2.515625 -2.75 4.015625q1.640625 0.34375 2.609375 1.578125q0.984375 1.21875 0.984375 2.9375q0 2.515625 -1.828125 4.296875q-1.828125 1.765625 -4.5625 1.765625q-2.59375 0 -4.296875 -1.484375q-1.703125 -1.5 -1.984375 -3.90625zm28.199646 -14.015625l0 24.453125l-6.46875 0l0 -2.875l3.0 0l0 -18.734375l-3.0 0l0 -2.84375l6.46875 0z" fill-rule="nonzero"/><path fill="#000000" fill-opacity="0.0" d="m86.09974 363.40027l134.48819 0l0 42.015747l-134.48819 0z" fill-rule="evenodd"/><path fill="#000000" d="m106.20109 390.32025l-3.90625 -9.671875l2.6875 0l1.828125 4.9375l0.53125 1.640625q0.203125 -0.625 0.265625 -0.828125q0.125 -0.40625 0.265625 -0.8125l1.84375 -4.9375l2.625 0l-3.84375 9.671875l-2.296875 0zm9.625717 -6.71875l-2.328125 -0.421875q0.40625 -1.40625 1.359375 -2.078125q0.953125 -0.671875 2.84375 -0.671875q1.703125 0 2.546875 0.40625q0.84375 0.40625 1.171875 1.03125q0.34375 0.625 0.34375 2.28125l-0.015625 3.0q0 1.265625 0.109375 1.875q0.125 0.609375 0.46875 1.296875l-2.53125 0q-0.109375 -0.25 -0.25 -0.75q-0.0625 -0.234375 -0.09375 -0.3125q-0.65625 0.640625 -1.40625 0.96875q-0.734375 0.3125 -1.59375 0.3125q-1.484375 0 -2.34375 -0.8125q-0.859375 -0.8125 -0.859375 -2.046875q0 -0.828125 0.390625 -1.46875q0.390625 -0.640625 1.09375 -0.96875q0.703125 -0.34375 2.03125 -0.609375q1.796875 -0.328125 2.484375 -0.625l0 -0.25q0 -0.75 -0.359375 -1.0625q-0.359375 -0.3125 -1.375 -0.3125q-0.6875 0 -1.078125 0.28125q-0.375 0.265625 -0.609375 0.9375zm3.421875 2.078125q-0.484375 0.15625 -1.5625 0.390625q-1.0625 0.21875 -1.390625 0.4375q-0.5 0.359375 -0.5 0.90625q0 0.53125 0.40625 0.9375q0.40625 0.390625 1.015625 0.390625q0.703125 0 1.328125 -0.46875q0.46875 -0.34375 0.609375 -0.84375q0.09375 -0.328125 0.09375 -1.25l0 -0.5zm5.047592 4.640625l0 -13.359375l2.5625 0l0 13.359375l-2.5625 0zm11.542671 0l0 -1.453125q-0.53125 0.78125 -1.390625 1.234375q-0.859375 0.4375 -1.8125 0.4375q-0.96875 0 -1.75 -0.421875q-0.765625 -0.4375 -1.125 -1.203125q-0.34375 -0.78125 -0.34375 -2.140625l0 -6.125l2.5625 0l0 4.4375q0 2.046875 0.140625 2.515625q0.140625 0.453125 0.515625 0.71875q0.375 0.265625 0.953125 0.265625q0.65625 0 1.171875 -0.359375q0.515625 -0.359375 0.703125 -0.890625q0.203125 -0.53125 0.203125 -2.609375l0 -4.078125l2.546875 0l0 9.671875l-2.375 0zm10.630356 -3.078125l2.546875 0.421875q-0.484375 1.40625 -1.546875 2.140625q-1.0625 0.734375 -2.65625 0.734375q-2.515625 0 -3.734375 -1.65625q-0.953125 -1.3125 -0.953125 -3.328125q0 -2.40625 1.25 -3.765625q1.265625 -1.359375 3.1875 -1.359375q2.15625 0 3.40625 1.421875q1.25 1.421875 1.1875 4.375l-6.40625 0q0.03125 1.140625 0.609375 1.78125q0.59375 0.625 1.484375 0.625q0.59375 0 1.0 -0.328125q0.421875 -0.328125 0.625 -1.0625zm0.15625 -2.59375q-0.03125 -1.109375 -0.578125 -1.6875q-0.546875 -0.578125 -1.328125 -0.578125q-0.84375 0 -1.390625 0.609375q-0.546875 0.609375 -0.53125 1.65625l3.828125 0zm3.7194672 2.90625l2.5625 -0.390625q0.171875 0.75 0.671875 1.140625q0.5 0.390625 1.40625 0.390625q0.984375 0 1.484375 -0.375q0.34375 -0.25 0.34375 -0.671875q0 -0.296875 -0.1875 -0.484375q-0.1875 -0.1875 -0.859375 -0.34375q-3.09375 -0.6875 -3.921875 -1.25q-1.140625 -0.78125 -1.140625 -2.171875q0 -1.265625 0.984375 -2.109375q1.0 -0.859375 3.078125 -0.859375q1.984375 0 2.953125 0.65625q0.96875 0.640625 1.328125 1.90625l-2.40625 0.4375q-0.15625 -0.5625 -0.59375 -0.859375q-0.421875 -0.296875 -1.234375 -0.296875q-1.0 0 -1.4375 0.28125q-0.296875 0.203125 -0.296875 0.515625q0 0.265625 0.25 0.46875q0.34375 0.25 2.390625 0.71875q2.046875 0.453125 2.859375 1.140625q0.796875 0.671875 0.796875 1.890625q0 1.34375 -1.109375 2.296875q-1.109375 0.953125 -3.28125 0.953125q-1.984375 0 -3.140625 -0.796875q-1.140625 -0.8125 -1.5 -2.1875zm11.266342 6.53125l0 -17.125l4.53125 0l0 2.015625l-2.09375 0l0 13.09375l2.09375 0l0 2.015625l-4.53125 0zm6.712677 -10.875l0 -2.5625l2.5625 0l0 2.5625l-2.5625 0zm0 7.109375l0 -2.5625l2.5625 0l0 2.5625l-2.5625 0zm5.431427 -3.5625l0 -2.5625l5.03125 0l0 2.5625l-5.03125 0zm14.603302 1.1875l0 2.375l-8.96875 0q0.140625 -1.34375 0.859375 -2.546875q0.734375 -1.21875 2.890625 -3.203125q1.734375 -1.625 2.125 -2.1875q0.53125 -0.796875 0.53125 -1.578125q0 -0.84375 -0.46875 -1.296875q-0.453125 -0.46875 -1.265625 -0.46875q-0.796875 0 -1.28125 0.484375q-0.46875 0.46875 -0.546875 1.59375l-2.546875 -0.25q0.234375 -2.109375 1.421875 -3.03125q1.203125 -0.921875 3.015625 -0.921875q1.96875 0 3.09375 1.0625q1.140625 1.0625 1.140625 2.65625q0 0.890625 -0.328125 1.71875q-0.3125 0.8125 -1.015625 1.703125q-0.46875 0.59375 -1.6875 1.703125q-1.203125 1.109375 -1.53125 1.484375q-0.3125 0.359375 -0.515625 0.703125l5.078125 0zm5.813217 -10.984375l0 17.125l-4.53125 0l0 -2.015625l2.109375 0l0 -13.109375l-2.109375 0l0 -2.0l4.53125 0zm7.302231 5.921875l0 -2.34375l9.328125 0l0 2.34375l-9.328125 0zm0 4.046875l0 -2.359375l9.328125 0l0 2.359375l-9.328125 0z" fill-rule="nonzero"/><path fill="#000000" fill-opacity="0.0" d="m241.60104 370.74026l0 0c0 -3.2209778 2.611145 -5.832123 5.832138 -5.832123l165.97353 0c1.5467834 0 3.0302124 0.6144409 4.123932 1.7081909c1.09375 1.09375 1.7081909 2.5771484 1.7081909 4.123932l0 23.32785c0 3.2210083 -2.6111145 5.8321533 -5.832123 5.8321533l-165.97353 0l0 0c-3.220993 0 -5.832138 -2.611145 -5.832138 -5.8321533z" fill-rule="evenodd"/><path stroke="#000000" stroke-width="1.0" stroke-linejoin="round" stroke-linecap="butt" d="m241.60104 370.74026l0 0c0 -3.2209778 2.611145 -5.832123 5.832138 -5.832123l165.97353 0c1.5467834 0 3.0302124 0.6144409 4.123932 1.7081909c1.09375 1.09375 1.7081909 2.5771484 1.7081909 4.123932l0 23.32785c0 3.2210083 -2.6111145 5.8321533 -5.832123 5.8321533l-165.97353 0l0 0c-3.220993 0 -5.832138 -2.611145 -5.832138 -5.8321533z" fill-rule="evenodd"/><path fill="#000000" fill-opacity="0.0" d="m220.59317 409.40552l288.8189 0l0 51.716522l-288.8189 0z" fill-rule="evenodd"/><path fill="#000000" d="m231.49942 449.38052l0 -24.453125l6.46875 0l0 2.875l-3.0 0l0 18.703125l3.0 0l0 2.875l-6.46875 0zm15.50145 -20.796875l0 -3.40625l12.51564 0l0 2.65625q-1.546875 1.53125 -3.15625 4.390625q-1.5937653 2.84375 -2.4375153 6.046875q-0.84375 3.203125 -0.828125 5.734375l-3.515625 0q0.078125 -3.953125 1.625 -8.0625q1.546875 -4.125 4.125 -7.359375l-8.328125 0zm15.528061 11.765625l3.65625 0l0 2.609375q0 1.59375 -0.28125 2.5q-0.265625 0.921875 -1.03125 1.65625q-0.765625 0.734375 -1.9375 1.140625l-0.71875 -1.5q1.109375 -0.375 1.578125 -1.015625q0.46875 -0.625 0.5 -1.734375l-1.765625 0l0 -3.65625zm14.171295 -1.25l3.640625 -0.375q0.15625 1.234375 0.921875 1.953125q0.765625 0.71875 1.765625 0.71875q1.15625 0 1.9375 -0.921875q0.796875 -0.9375 0.796875 -2.8125q0 -1.75 -0.78125 -2.625q-0.78125 -0.890625 -2.046875 -0.890625q-1.578125 0 -2.828125 1.40625l-2.96875 -0.4375l1.875 -9.9375l9.671875 0l0 3.4375l-6.890625 0l-0.578125 3.234375q1.21875 -0.609375 2.5 -0.609375q2.4375 0 4.125 1.765625q1.6875 1.765625 1.6875 4.59375q0 2.359375 -1.359375 4.203125q-1.859375 2.53125 -5.171875 2.53125q-2.640625 0 -4.3125 -1.421875q-1.65625 -1.421875 -1.984375 -3.8125zm15.465576 1.25l3.65625 0l0 2.609375q0 1.59375 -0.28125 2.5q-0.265625 0.921875 -1.03125 1.65625q-0.765625 0.734375 -1.9375 1.140625l-0.71875 -1.5q1.109375 -0.375 1.578125 -1.015625q0.46875 -0.625 0.5 -1.734375l-1.765625 0l0 -3.65625zm26.46817 0.265625l0 3.390625l-12.828125 0q0.21875 -1.921875 1.25 -3.640625q1.046875 -1.734375 4.125 -4.578125q2.46875 -2.3125 3.03125 -3.125q0.75 -1.140625 0.75 -2.25q0 -1.21875 -0.65625 -1.875q-0.65625 -0.65625 -1.8125 -0.65625q-1.140625 0 -1.828125 0.6875q-0.671875 0.6875 -0.78125 2.296875l-3.640625 -0.375q0.328125 -3.015625 2.046875 -4.328125q1.71875 -1.3125 4.296875 -1.3125q2.8125 0 4.421875 1.53125q1.625 1.515625 1.625 3.78125q0 1.28125 -0.46875 2.453125q-0.453125 1.15625 -1.453125 2.4375q-0.671875 0.84375 -2.40625 2.4375q-1.71875 1.578125 -2.1875 2.109375q-0.453125 0.515625 -0.75 1.015625l7.265625 0zm3.1686707 -0.265625l3.65625 0l0 2.609375q0 1.59375 -0.28125 2.5q-0.265625 0.921875 -1.03125 1.65625q-0.765625 0.734375 -1.9375 1.140625l-0.71875 -1.5q1.109375 -0.375 1.578125 -1.015625q0.46875 -0.625 0.5 -1.734375l-1.765625 0l0 -3.65625zm17.24942 -6.640625q-1.421875 -0.59375 -2.0625 -1.640625q-0.640625 -1.046875 -0.640625 -2.296875q0 -2.140625 1.484375 -3.53125q1.5 -1.390625 4.234375 -1.390625q2.734375 0 4.234375 1.390625q1.5 1.390625 1.5 3.53125q0 1.328125 -0.6875 2.359375q-0.6875 1.03125 -1.9375 1.578125q1.578125 0.640625 2.40625 1.875q0.828125 1.21875 0.828125 2.8125q0 2.640625 -1.6875 4.296875q-1.6875 1.65625 -4.484375 1.65625q-2.59375 0 -4.328125 -1.375q-2.046875 -1.609375 -2.046875 -4.421875q0 -1.546875 0.765625 -2.84375q0.765625 -1.296875 2.421875 -2.0zm0.765625 -3.6875q0 1.09375 0.609375 1.71875q0.625 0.609375 1.640625 0.609375q1.046875 0 1.671875 -0.625q0.625 -0.625 0.625 -1.703125q0 -1.03125 -0.625 -1.640625q-0.609375 -0.625 -1.625 -0.625q-1.046875 0 -1.671875 0.625q-0.625 0.625 -0.625 1.640625zm-0.34375 8.171875q0 1.515625 0.765625 2.359375q0.78125 0.84375 1.9375 0.84375q1.140625 0 1.875 -0.8125q0.75 -0.8125 0.75 -2.34375q0 -1.34375 -0.765625 -2.15625q-0.75 -0.8125 -1.90625 -0.8125q-1.34375 0 -2.0 0.921875q-0.65625 0.921875 -0.65625 2.0zm11.965576 2.15625l3.65625 0l0 2.609375q0 1.59375 -0.28125 2.5q-0.265625 0.921875 -1.03125 1.65625q-0.765625 0.734375 -1.9375 1.140625l-0.71875 -1.5q1.109375 -0.375 1.578125 -1.015625q0.46875 -0.625 0.5 -1.734375l-1.765625 0l0 -3.65625zm14.171295 -1.25l3.640625 -0.375q0.15625 1.234375 0.921875 1.953125q0.765625 0.71875 1.765625 0.71875q1.15625 0 1.9375 -0.921875q0.796875 -0.9375 0.796875 -2.8125q0 -1.75 -0.78125 -2.625q-0.78125 -0.890625 -2.046875 -0.890625q-1.578125 0 -2.828125 1.40625l-2.96875 -0.4375l1.875 -9.9375l9.671875 0l0 3.4375l-6.890625 0l-0.578125 3.234375q1.21875 -0.609375 2.5 -0.609375q2.4375 0 4.125 1.765625q1.6875 1.765625 1.6875 4.59375q0 2.359375 -1.359375 4.203125q-1.859375 2.53125 -5.171875 2.53125q-2.640625 0 -4.3125 -1.421875q-1.65625 -1.421875 -1.984375 -3.8125zm15.465546 1.25l3.65625 0l0 2.609375q0 1.59375 -0.28125 2.5q-0.265625 0.921875 -1.03125 1.65625q-0.765625 0.734375 -1.9375 1.140625l-0.71875 -1.5q1.109375 -0.375 1.578125 -1.015625q0.46875 -0.625 0.5 -1.734375l-1.765625 0l0 -3.65625zm13.983795 -1.40625l3.546875 -0.4375q0.171875 1.359375 0.90625 2.078125q0.75 0.71875 1.796875 0.71875q1.125 0 1.90625 -0.859375q0.78125 -0.859375 0.78125 -2.328125q0 -1.375 -0.75 -2.171875q-0.734375 -0.8125 -1.8125 -0.8125q-0.703125 0 -1.671875 0.265625l0.40625 -2.96875q1.484375 0.03125 2.265625 -0.640625q0.78125 -0.6875 0.78125 -1.828125q0 -0.953125 -0.578125 -1.53125q-0.578125 -0.578125 -1.53125 -0.578125q-0.921875 0 -1.59375 0.65625q-0.65625 0.65625 -0.8125 1.90625l-3.359375 -0.578125q0.34375 -1.734375 1.046875 -2.765625q0.71875 -1.03125 1.984375 -1.625q1.265625 -0.59375 2.84375 -0.59375q2.703125 0 4.328125 1.71875q1.34375 1.40625 1.34375 3.171875q0 2.515625 -2.75 4.015625q1.640625 0.34375 2.609375 1.578125q0.984375 1.21875 0.984375 2.9375q0 2.515625 -1.828125 4.296875q-1.828125 1.765625 -4.5625 1.765625q-2.59375 0 -4.296875 -1.484375q-1.703125 -1.5 -1.984375 -3.90625zm15.653076 1.40625l3.65625 0l0 2.609375q0 1.59375 -0.28125 2.5q-0.265625 0.921875 -1.03125 1.65625q-0.765625 0.734375 -1.9375 1.140625l-0.71875 -1.5q1.109375 -0.375 1.578125 -1.015625q0.46875 -0.625 0.5 -1.734375l-1.765625 0l0 -3.65625zm20.296295 -15.5q2.78125 0 4.34375 1.96875q1.859375 2.34375 1.859375 7.78125q0 5.40625 -1.875 7.78125q-1.546875 1.953125 -4.328125 1.953125q-2.78125 0 -4.484375 -2.140625q-1.703125 -2.140625 -1.703125 -7.640625q0 -5.390625 1.875 -7.75q1.546875 -1.953125 4.3125 -1.953125zm0 3.03125q-0.65625 0 -1.1875 0.421875q-0.515625 0.421875 -0.796875 1.515625q-0.375 1.421875 -0.375 4.78125q0 3.359375 0.328125 4.609375q0.34375 1.25 0.859375 1.671875q0.515625 0.421875 1.171875 0.421875q0.671875 0 1.1875 -0.421875q0.515625 -0.421875 0.8125 -1.515625q0.375 -1.40625 0.375 -4.765625q0 -3.359375 -0.34375 -4.609375q-0.34375 -1.265625 -0.859375 -1.6875q-0.5 -0.421875 -1.171875 -0.421875zm9.340546 12.46875l3.65625 0l0 2.609375q0 1.59375 -0.28125 2.5q-0.265625 0.921875 -1.03125 1.65625q-0.765625 0.734375 -1.9375 1.140625l-0.71875 -1.5q1.109375 -0.375 1.578125 -1.015625q0.46875 -0.625 0.5 -1.734375l-1.765625 0l0 -3.65625zm13.983795 -1.40625l3.546875 -0.4375q0.171875 1.359375 0.90625 2.078125q0.75 0.71875 1.796875 0.71875q1.125 0 1.90625 -0.859375q0.78125 -0.859375 0.78125 -2.328125q0 -1.375 -0.75 -2.171875q-0.734375 -0.8125 -1.8125 -0.8125q-0.703125 0 -1.671875 0.265625l0.40625 -2.96875q1.484375 0.03125 2.265625 -0.640625q0.78125 -0.6875 0.78125 -1.828125q0 -0.953125 -0.578125 -1.53125q-0.578125 -0.578125 -1.53125 -0.578125q-0.921875 0 -1.59375 0.65625q-0.65625 0.65625 -0.8125 1.90625l-3.359375 -0.578125q0.34375 -1.734375 1.046875 -2.765625q0.71875 -1.03125 1.984375 -1.625q1.265625 -0.59375 2.84375 -0.59375q2.703125 0 4.328125 1.71875q1.34375 1.40625 1.34375 3.171875q0 2.515625 -2.75 4.015625q1.640625 0.34375 2.609375 1.578125q0.984375 1.21875 0.984375 2.9375q0 2.515625 -1.828125 4.296875q-1.828125 1.765625 -4.5625 1.765625q-2.59375 0 -4.296875 -1.484375q-1.703125 -1.5 -1.984375 -3.90625zm28.199646 -14.015625l0 24.453125l-6.46875 0l0 -2.875l3.0 0l0 -18.734375l-3.0 0l0 -2.84375l6.46875 0z" fill-rule="nonzero"/><path fill="#000000" fill-opacity="0.0" d="m86.09974 416.40027l134.48819 0l0 42.015747l-134.48819 0z" fill-rule="evenodd"/><path fill="#000000" d="m106.20109 443.32025l-3.90625 -9.671875l2.6875 0l1.828125 4.9375l0.53125 1.640625q0.203125 -0.625 0.265625 -0.828125q0.125 -0.40625 0.265625 -0.8125l1.84375 -4.9375l2.625 0l-3.84375 9.671875l-2.296875 0zm9.625717 -6.71875l-2.328125 -0.421875q0.40625 -1.40625 1.359375 -2.078125q0.953125 -0.671875 2.84375 -0.671875q1.703125 0 2.546875 0.40625q0.84375 0.40625 1.171875 1.03125q0.34375 0.625 0.34375 2.28125l-0.015625 3.0q0 1.265625 0.109375 1.875q0.125 0.609375 0.46875 1.296875l-2.53125 0q-0.109375 -0.25 -0.25 -0.75q-0.0625 -0.234375 -0.09375 -0.3125q-0.65625 0.640625 -1.40625 0.96875q-0.734375 0.3125 -1.59375 0.3125q-1.484375 0 -2.34375 -0.8125q-0.859375 -0.8125 -0.859375 -2.046875q0 -0.828125 0.390625 -1.46875q0.390625 -0.640625 1.09375 -0.96875q0.703125 -0.34375 2.03125 -0.609375q1.796875 -0.328125 2.484375 -0.625l0 -0.25q0 -0.75 -0.359375 -1.0625q-0.359375 -0.3125 -1.375 -0.3125q-0.6875 0 -1.078125 0.28125q-0.375 0.265625 -0.609375 0.9375zm3.421875 2.078125q-0.484375 0.15625 -1.5625 0.390625q-1.0625 0.21875 -1.390625 0.4375q-0.5 0.359375 -0.5 0.90625q0 0.53125 0.40625 0.9375q0.40625 0.390625 1.015625 0.390625q0.703125 0 1.328125 -0.46875q0.46875 -0.34375 0.609375 -0.84375q0.09375 -0.328125 0.09375 -1.25l0 -0.5zm5.047592 4.640625l0 -13.359375l2.5625 0l0 13.359375l-2.5625 0zm11.542671 0l0 -1.453125q-0.53125 0.78125 -1.390625 1.234375q-0.859375 0.4375 -1.8125 0.4375q-0.96875 0 -1.75 -0.421875q-0.765625 -0.4375 -1.125 -1.203125q-0.34375 -0.78125 -0.34375 -2.140625l0 -6.125l2.5625 0l0 4.4375q0 2.046875 0.140625 2.515625q0.140625 0.453125 0.515625 0.71875q0.375 0.265625 0.953125 0.265625q0.65625 0 1.171875 -0.359375q0.515625 -0.359375 0.703125 -0.890625q0.203125 -0.53125 0.203125 -2.609375l0 -4.078125l2.546875 0l0 9.671875l-2.375 0zm10.630356 -3.078125l2.546875 0.421875q-0.484375 1.40625 -1.546875 2.140625q-1.0625 0.734375 -2.65625 0.734375q-2.515625 0 -3.734375 -1.65625q-0.953125 -1.3125 -0.953125 -3.328125q0 -2.40625 1.25 -3.765625q1.265625 -1.359375 3.1875 -1.359375q2.15625 0 3.40625 1.421875q1.25 1.421875 1.1875 4.375l-6.40625 0q0.03125 1.140625 0.609375 1.78125q0.59375 0.625 1.484375 0.625q0.59375 0 1.0 -0.328125q0.421875 -0.328125 0.625 -1.0625zm0.15625 -2.59375q-0.03125 -1.109375 -0.578125 -1.6875q-0.546875 -0.578125 -1.328125 -0.578125q-0.84375 0 -1.390625 0.609375q-0.546875 0.609375 -0.53125 1.65625l3.828125 0zm3.7194672 2.90625l2.5625 -0.390625q0.171875 0.75 0.671875 1.140625q0.5 0.390625 1.40625 0.390625q0.984375 0 1.484375 -0.375q0.34375 -0.25 0.34375 -0.671875q0 -0.296875 -0.1875 -0.484375q-0.1875 -0.1875 -0.859375 -0.34375q-3.09375 -0.6875 -3.921875 -1.25q-1.140625 -0.78125 -1.140625 -2.171875q0 -1.265625 0.984375 -2.109375q1.0 -0.859375 3.078125 -0.859375q1.984375 0 2.953125 0.65625q0.96875 0.640625 1.328125 1.90625l-2.40625 0.4375q-0.15625 -0.5625 -0.59375 -0.859375q-0.421875 -0.296875 -1.234375 -0.296875q-1.0 0 -1.4375 0.28125q-0.296875 0.203125 -0.296875 0.515625q0 0.265625 0.25 0.46875q0.34375 0.25 2.390625 0.71875q2.046875 0.453125 2.859375 1.140625q0.796875 0.671875 0.796875 1.890625q0 1.34375 -1.109375 2.296875q-1.109375 0.953125 -3.28125 0.953125q-1.984375 0 -3.140625 -0.796875q-1.140625 -0.8125 -1.5 -2.1875zm11.266342 6.53125l0 -17.125l4.53125 0l0 2.015625l-2.09375 0l0 13.09375l2.09375 0l0 2.015625l-4.53125 0zm5.931427 -7.328125l0 -2.5625l5.03125 0l0 2.5625l-5.03125 0zm5.868927 0.015625l2.46875 -0.296875q0.125 0.953125 0.640625 1.453125q0.53125 0.5 1.265625 0.5q0.78125 0 1.328125 -0.59375q0.546875 -0.609375 0.546875 -1.640625q0 -0.953125 -0.53125 -1.515625q-0.515625 -0.578125 -1.25 -0.578125q-0.5 0 -1.1875 0.203125l0.28125 -2.09375q1.046875 0.03125 1.59375 -0.4375q0.546875 -0.484375 0.546875 -1.28125q0 -0.671875 -0.40625 -1.078125q-0.390625 -0.40625 -1.0625 -0.40625q-0.65625 0 -1.125 0.46875q-0.453125 0.453125 -0.5625 1.328125l-2.359375 -0.40625q0.25 -1.203125 0.734375 -1.921875q0.5 -0.734375 1.390625 -1.140625q0.890625 -0.421875 2.0 -0.421875q1.875 0 3.015625 1.203125q0.9375 0.984375 0.9375 2.21875q0 1.765625 -1.921875 2.8125q1.15625 0.234375 1.84375 1.09375q0.6875 0.859375 0.6875 2.0625q0 1.765625 -1.296875 3.015625q-1.28125 1.234375 -3.1875 1.234375q-1.8125 0 -3.015625 -1.046875q-1.1875 -1.046875 -1.375 -2.734375zm11.500717 -3.5625l0 -2.5625l2.5625 0l0 2.5625l-2.5625 0zm0 7.109375l0 -2.5625l2.5625 0l0 2.5625l-2.5625 0zm9.259552 -13.359375l0 17.125l-4.53125 0l0 -2.015625l2.109375 0l0 -13.109375l-2.109375 0l0 -2.0l4.53125 0zm7.302231 5.921875l0 -2.34375l9.328125 0l0 2.34375l-9.328125 0zm0 4.046875l0 -2.359375l9.328125 0l0 2.359375l-9.328125 0z" fill-rule="nonzero"/><path fill="#000000" fill-opacity="0.0" d="m390.58005 423.74026l0 0c0 -3.2209778 2.611145 -5.832123 5.8321533 -5.832123l69.847534 0c1.5467834 0 3.030182 0.6144409 4.123932 1.7081909c1.09375 1.09375 1.7081909 2.5771484 1.7081909 4.123932l0 23.32785c0 3.2210083 -2.611145 5.8321533 -5.832123 5.8321533l-69.847534 0c-3.2210083 0 -5.8321533 -2.611145 -5.8321533 -5.8321533z" fill-rule="evenodd"/><path stroke="#000000" stroke-width="1.0" stroke-linejoin="round" stroke-linecap="butt" d="m390.58005 423.74026l0 0c0 -3.2209778 2.611145 -5.832123 5.8321533 -5.832123l69.847534 0c1.5467834 0 3.030182 0.6144409 4.123932 1.7081909c1.09375 1.09375 1.7081909 2.5771484 1.7081909 4.123932l0 23.32785c0 3.2210083 -2.611145 5.8321533 -5.832123 5.8321533l-69.847534 0c-3.2210083 0 -5.8321533 -2.611145 -5.8321533 -5.8321533z" fill-rule="evenodd"/></g></svg>